<svg xmlns="http://www.w3.org/2000/svg" viewBox="0 0 263.68 165.51"><g id="Layer_2" data-name="Layer 2"><g id="Layer_1-2" data-name="Layer 1"><path d="M260.78.06c-40.41-1-79.63,11.52-115,30.38A450.22,450.22,0,0,0,94.86,62.66C79.33,73.82,63.92,85.58,51.38,100.13,37.23,116.55,27.59,136,18.16,155.39c-1.68,3.46,3.49,6.5,5.18,3,8.22-16.86,16.5-33.95,28-48.85C63.1,94.43,78.12,82.27,93.49,71c31-22.7,64.32-43.29,101.16-55a201,201,0,0,1,66.13-9.93c3.86.1,3.86-5.9,0-6Z"/><path d="M0,88.25A383.31,383.31,0,0,0,5.4,129.6q2,10.77,4.65,21.39c1,4,1.47,11.91,5.76,14,1.78.87,3.68.44,5.53.11,3.58-.62,7.14-1.35,10.71-2L53.46,159l44.76-8.52c3.79-.72,2.18-6.5-1.6-5.78l-37.95,7.22-18.49,3.52c-6.32,1.2-13,3.28-19.46,3.7-1.65.11-1.45.58-2.47-.54-.64-.72-1-3.55-1.23-4.6q-1.21-4.59-2.3-9.23Q12.65,136,11,127.07A369.83,369.83,0,0,1,6,88.25c-.29-3.83-6.3-3.86-6,0Z"/></g></g></svg>