<svg xmlns="http://www.w3.org/2000/svg" viewBox="0 0 34.01 34.01"><defs><style>.cls-1{fill:#ffcc4d;}.cls-2{fill:#664500;}.cls-3{fill:#fff;}.cls-4{fill:#e95f28;}</style></defs><g id="Layer_2" data-name="Layer 2"><g id="Layer_1-2" data-name="Layer 1"><path class="cls-1" d="M34,17A17,17,0,1,1,17,0,17,17,0,0,1,34,17"/><path class="cls-2" d="M17,19.84A40.42,40.42,0,0,1,8.5,18.9c-.64-.13-1.89,0-1.89,1.89,0,3.78,4.35,8.5,10.4,8.5s10.39-4.72,10.39-8.5c0-1.89-1.25-2-1.89-1.89A40.4,40.4,0,0,1,17,19.84Z"/><path class="cls-3" d="M8.5,20.79a29.88,29.88,0,0,0,8.51.94,29.75,29.75,0,0,0,8.5-.94s-1.89,3.78-8.5,3.78S8.5,20.79,8.5,20.79Z"/><path class="cls-4" d="M14.82,4.17l-4.29.76L8.31.91A1.18,1.18,0,0,0,7.07.31a1.2,1.2,0,0,0-1,1l-.7,4.53-4.29.76a1.17,1.17,0,0,0-1,1A1.18,1.18,0,0,0,.82,8.82l3.84,1.82L4,15.19a1.17,1.17,0,0,0,.63,1.23,1.12,1.12,0,0,0,.53.13A1.16,1.16,0,0,0,6,16.2l3.32-3.37,4.27,2a1.18,1.18,0,0,0,1.37-.26,1.16,1.16,0,0,0,.17-1.37l-2.22-4,3-3a1.18,1.18,0,0,0-1-2Zm4.38,0,4.29.76,2.21-4a1.18,1.18,0,0,1,2.2.39l.7,4.53,4.3.76a1.17,1.17,0,0,1,1,1,1.2,1.2,0,0,1-.66,1.23l-3.85,1.82.71,4.55a1.17,1.17,0,0,1-.64,1.23,1.12,1.12,0,0,1-.53.13,1.18,1.18,0,0,1-.84-.35l-3.32-3.37-4.27,2a1.18,1.18,0,0,1-1.54-1.64l2.22-4-3-3a1.18,1.18,0,0,1,1.05-2Z"/></g></g></svg>