<svg xmlns="http://www.w3.org/2000/svg" viewBox="0 0 376 376"><defs><style>.cls-1{fill:#111;}</style></defs><g id="Layer_2" data-name="Layer 2"><g id="Layer_1-2" data-name="Layer 1"><path class="cls-1" d="M188,0C84.17,0,0,84.17,0,188S84.17,376,188,376s188-84.17,188-188S291.83,0,188,0ZM29,188A158,158,0,0,1,75.57,75.57a161.79,161.79,0,0,1,18.59-16q23.7-14.38,55.38-18.76L152,40.5c50.45-3,87.52,37.18,90.47,76.53,2.95,45.16-31.42,67.33-31.77,67.55l-1.27.8,1.5.12q4.31.34,8.43.34c19.93,0,36.87-6,50.45-17.87,29.56-25.85,34.72-72.25,35.61-87.14a159,159,0,0,1-5,219.6c-.88.88-1.76,1.74-2.66,2.59q-28,23.63-70.28,29.47l-2.49.35c-50.47,3-87.52-37.17-90.47-76.53C131.59,211.15,166,189,166.3,188.77l1.27-.8-1.5-.12c-23.61-1.89-43.42,4-58.88,17.52-30.1,26.32-34.9,74-35.66,87.95a24.06,24.06,0,0,0,0,2.94A157.88,157.88,0,0,1,29,188Z"/></g></g></svg>