<?xml version="1.0" encoding="utf-8"?>
<!-- Generator: Adobe Illustrator 24.1.0, SVG Export Plug-In . SVG Version: 6.00 Build 0)  -->
<svg version="1.1" xmlns="http://www.w3.org/2000/svg" xmlns:xlink="http://www.w3.org/1999/xlink" x="0px" y="0px"
	 viewBox="0 0 500 500" style="enable-background:new 0 0 500 500;" xml:space="preserve">
<style type="text/css">
	.st0{fill:#080866;}
	.st1{fill:#20F6FF;}
	.st2{fill:#F48C7F;}
	.st3{fill:#F7A491;}
	.st4{fill:#184655;}
	.st5{fill:#20D1E7;}
	.st6{fill:#0097FF;}
	.st7{fill:#F47458;}
	.st8{fill:#FFFFFF;}
	.st9{fill:#006DC4;}
	.st10{fill:#13375B;}
</style>
<g id="BACKGROUND">
</g>
<g id="OBJECTS">
	<g>
		<path class="st0" d="M423.77,425.16c0-1.22-0.35-2.22-0.78-2.22H71.54c-0.52,0-0.95,0.99-0.95,2.22c0,1.23,0.42,2.22,0.95,2.22
			h351.45C423.42,427.37,423.77,426.38,423.77,425.16L423.77,425.16z"/>
	</g>
	<g>
		<path class="st1" d="M258.95,69.8h62.45c14.47,0,26.21-11.73,26.21-26.21v-6.54c0-14.47-11.73-26.21-26.21-26.21h-62.45
			c-14.47,0-26.21,11.73-26.21,26.21v6.54C232.74,58.07,244.47,69.8,258.95,69.8z"/>
		<polygon class="st1" points="316.97,62.65 319.14,104.42 289.66,61.67 		"/>
	</g>
	<g>
		<path class="st2" d="M201.86,191.1l1.89-8.62c0,0,6.2,3.94,9.82,9.56c3.62,5.62,5.34,20.61,6.37,21.18
			c1.03,0.56,12.48-17.07,14.48-19.85c2.48-3.44,3.4-7.38,4.95-10.38c1.55-3,7.01-4.02,9.08-3.64c2.07,0.37-2.84,9.14-2.84,9.14
			s-12.4,21.55-16.54,33.36c-4.13,11.81-17.06,17.43-19.12,15.74C207.89,235.89,201.86,191.1,201.86,191.1z"/>
		<path class="st3" d="M239.52,184.63c0,0,0.52-2.27,1.91-2.73c1.39-0.46,3.82-0.05,3.97,0c0.15,0.05,2.84-1.39,2.84-1.39
			l-2.22,4.13c0,0-4.33,5.11-5.78,3.2C238.79,185.92,239.52,184.63,239.52,184.63z"/>
		<path class="st2" d="M249,180.69c0,0,1.56,7.96,1.17,9.63c-0.4,1.67-1.39,0.78-1.58,0.41c-0.77-1.5-1.31-6.6-1.31-6.6L249,180.69z
			"/>
		<path class="st2" d="M245.64,187.31c0,0,0.75,4.94,1.51,5.52c0.5,0.38,1.13,0.15,1.34-0.84c0.21-1-1-7.08-1-7.08L245.64,187.31z"
			/>
		<path class="st4" d="M241.08,201.32l-2.6-1.27l11.03-22.62l0,0c1.43,0.7,2.03,2.43,1.33,3.86L241.08,201.32z"/>
		<path class="st0" d="M213.37,155.66c1.56-7.07,3.08-14.19-1.02-21.97c-3.32-6.29-9.06-9.91-15.7-10.7
			c-18.82-2.23-14.8,15.34-41.11,19.14c-8.17,1.18-15.77,2.32-22.59,6.38c-12.32,7.34-16.97,19.12-8.8,38.3
			c20.01,46.97,69.13,7.1,75.2-2.15C203.86,177.78,212.37,160.21,213.37,155.66z"/>
		<path class="st3" d="M138.1,452.38c0,0-1.34,13.61-4.79,16.11c-3.45,2.5-8.04,11.74-5.74,16.74c0.72,1.56,2.15,2.46,3.79,2.97
			c4.84,1.49,9.99-1.02,12.05-5.65c1.15-2.58,2.16-6.03,2.36-10.38c0.52-11.06,3.96-16.68,3.96-16.68L138.1,452.38z"/>
		<path class="st3" d="M191.04,457.95c0,0,1.09,13.73,0.2,18.19c-0.47,2.39-3.1,7.31-1.89,9.56c1.21,2.25,2.58,2.81,2.58,2.81
			l31.25,0.5c1.7,0.03,0.58-1.07-0.8-2.07c-2.25-1.65-4.06-2.74-11.24-6.2c-0.47-0.23-2.17-1.31-2.79-1.68
			c-1.56-0.95-3.12-2.44-4.47-3.94c-2.24-2.49-2.44-14.59-2.44-14.59L191.04,457.95z"/>
		<path class="st5" d="M215.47,275.43c0,0,3.94,22.29,1.35,36.91c-2.58,14.62-14.99,150.09-14.99,150.09l-13.78,0.78
			c0,0-2.89-56.59-2.37-64.46c0.52-7.87,4.61-21.04,4.61-21.04l-1.37-45.69l17.39-60.03L215.47,275.43z"/>
		<path class="st1" d="M174.96,270.74c0,0-10.85,16.3-13.44,29.79c-2.58,13.49,1.9,54.95-3.07,72.63
			c-2.69,9.57-12.89,24.35-14.44,36.72c-1.55,12.37-7.63,44.76-7.63,44.76l13.78,2.73l32.02-80.9l25.11-73.13l6.43-37.66
			L174.96,270.74z"/>
		<path class="st6" d="M183.74,177.99c0,0-9.5,1.08-15.19,7.26c-5.68,6.18,9.19,55.89,10.22,63.76c1.03,7.87-8.47,26.23-8.47,26.23
			s35.51,6.56,45.16,0.19c0,0,1.03-56.59,0-62.21c-1.03-5.62-9.65-28.48-11.71-30.73C201.69,180.23,183.74,177.99,183.74,177.99z"/>
		<path class="st3" d="M170.31,189.91c0.92-2.77,4.06-4.1,6.73-2.95c3.67,1.59,8.74,4.6,11.21,9.76
			c4.13,8.62,18.61,38.23,23.08,39.35c4.48,1.12,22.74-30.73,22.74-30.73s-0.52-5.62,1.03-8.81c1.55-3.19,6.2-6.56,6.89-5.43
			c0.69,1.12-2.58,3.94-2.58,4.5c0,0.56,1.38,0.94,3.27-0.19c1.89-1.12,2.92-3.4,2.92-3.4s3.11,5.65-0.16,10.71
			c-3.27,5.06-4.65,7.12-4.65,7.12s-21.19,47.03-28.94,47.6C204.63,257.96,163.05,211.85,170.31,189.91z"/>
		<path class="st3" d="M188.53,158.82c0,0-0.07,0.42-0.21,1.14c-0.64,3.45-3.11,14.88-4.77,18.03c-2.01,3.8,6.9,15.92,15.47,14.44
			c2.55-0.44-2.16-11.13-1.93-12.27c0.43-2.17,1.02-5.13,1.62-8.16c0.34-1.71,0.68-3.45,1.01-5.08c0.92-4.63,1.67-8.42,1.67-8.42
			L188.53,158.82z"/>
		<path class="st7" d="M188.32,159.97c0.13-0.72,0.21-1.14,0.21-1.14l12.85-0.32c0,0-0.75,3.79-1.67,8.42
			c-0.32,1.62-0.66,3.35-1,5.05c-1.98-0.29-4.06-1.25-6.14-3.07c-2.27-1.98-3.75-4.36-4.65-6.9
			C188.09,161.2,188.22,160.5,188.32,159.97z"/>
		<path class="st3" d="M196.26,128.28c0,0-5.24,0.73-9.04,5.63c-3.8,4.9-7.89,20.05,1.54,28.29c9.43,8.24,18.75-1.09,20.13-10.98
			C210.28,141.34,210,127.93,196.26,128.28z"/>
		<path class="st3" d="M211.91,147.85c-1.13,2.18-3.02,3.39-4.22,2.7c-1.2-0.69-1.27-3.02-0.14-5.21c1.13-2.18,3.02-3.39,4.22-2.7
			C212.97,143.33,213.04,145.67,211.91,147.85z"/>
		<path class="st0" d="M197.85,128.05c0,0-8.09,14.41-13.88,15.08c-5.79,0.67-6.55,8.32-6.55,8.32s2.07-17.64,7.8-21.05
			C190.96,127,197.85,128.05,197.85,128.05z"/>
		<path class="st3" d="M185.87,146.57c0.47,2.56-0.48,4.91-2.12,5.24c-1.64,0.34-3.35-1.47-3.82-4.03
			c-0.47-2.56,0.48-4.91,2.11-5.24C183.69,142.2,185.4,144.01,185.87,146.57z"/>
		<path class="st0" d="M144.35,480.11c-7.51,1.37-12.5-3.02-15.1-6.3c-1.91,3.72-3.08,8.36-1.67,11.41c1.24,2.69,4.6,3.43,7.45,3.53
			c3.01,0.11,5.82-1.46,7.31-4.08C143.03,483.46,143.74,481.94,144.35,480.11z"/>
		<path class="st0" d="M208.36,479.05c-8.27,2.12-14.38,0.68-17.79-0.7c-0.88,2.49-2.05,5.62-1.43,7.42
			c0.76,2.21,1.84,2.71,2.79,2.73c7.55,0.2,27.65,0.47,33.41,0.54c0.8,0.01,1.25-0.93,0.73-1.54
			C224.65,485.81,208.98,479.42,208.36,479.05z"/>
	</g>
	<g>
		<path class="st6" d="M253.93,96.99h-50.38c-11.68,0-21.14-9.46-21.14-21.14v-5.28c0-11.68,9.46-21.14,21.14-21.14h50.38
			c11.68,0,21.14,9.46,21.14,21.14v5.28C275.07,87.53,265.6,96.99,253.93,96.99z"/>
		<polygon class="st6" points="211.93,90.43 202.91,117.49 229.15,90.43 		"/>
		<path class="st8" d="M209.61,75.02c0,2.39-2.08,4.33-4.64,4.33c-2.56,0-4.64-1.94-4.64-4.33c0-2.39,2.08-4.33,4.64-4.33
			C207.53,70.69,209.61,72.63,209.61,75.02z"/>
		<path class="st8" d="M233.33,75.02c0,2.39-2.08,4.33-4.64,4.33c-2.56,0-4.64-1.94-4.64-4.33c0-2.39,2.08-4.33,4.64-4.33
			C231.25,70.69,233.33,72.63,233.33,75.02z"/>
		<path class="st8" d="M257.05,75.02c0,2.39-2.08,4.33-4.64,4.33s-4.64-1.94-4.64-4.33c0-2.39,2.08-4.33,4.64-4.33
			S257.05,72.63,257.05,75.02z"/>
	</g>
	<g>
		<path class="st2" d="M241.66,285.18c5.81-1.67,5.97-0.64,6.71-0.87c0.87-0.28,7.9-9.8,7.9-9.8s20.93-27.92,22-29.47l6.6-36.12
			l19.83-0.16c0,0-8.28,39.01-9.09,40.94c-0.81,1.93-33.98,36.03-36.79,39.13c0,0-1.82,5.04-3.07,8.16
			c-1.25,3.12-3.93,5.4-4.43,6.21c-0.07,0.12-1.9,2.71-5.1,5.24c-2.75,2.18-1.3-1.21-1.3-1.21s4.26-5,3.76-5.29
			c-0.38-0.23-2.53,2.65-5.55,5.09c-0.78,0.63-1.54,1.24-2.25,1.81c-1.87,1.47-3.45,0.69-1.78-1.18c0.59-0.66,1.6-1.73,2.44-2.38
			c0.91-0.71,1.48-1.66,2.14-2.38c1.31-1.42,2.28-2.44,2.18-2.46c-0.12-0.03-0.09-0.51-0.94,0.13c-1.02,0.77-2.76,2.9-4.36,3.91
			c-0.91,0.57-2.72,1.89-2.72,1.89s-3.17,1.45-3.34,1.29c-0.91-0.87,0.9-2.48,2.26-3.09c0.61-0.84,2.56-2.17,2.56-2.17
			s3.23-3.61,2.66-4.11c-0.24-0.21-2.52,1.74-5.1,3.29c-2.4,1.43-5.1,2.48-5.51,2.03c-0.7-0.76,1.76-2.64,1.76-2.64
			s1.8-1.22,2.36-1.68c0.66-0.53,2.49-2.29,2.49-2.29s6.05-6.42,5.48-6.86c-0.57-0.44-2.45-1.02-2.98-0.77
			c-0.53,0.26-1.2,1.25-1.73,1.51c-0.53,0.26-1.5,0.13-1.94-0.51c-0.44-0.64,1.53-2.89,1.53-2.89S239.98,285.66,241.66,285.18z"/>
		<path class="st3" d="M274.58,466.4c0,0,0.71,12.46,0.71,12.49c0.26,1.58,1.28,5.49,1.28,6.93c0,5.4-24.05-4.59-18.66-6.98
			c0.49-0.22,3.04-1.86,3.2-3.7c0.25-2.83,0.87-8.57,0.87-8.57L274.58,466.4z"/>
		<path class="st0" d="M257.98,478.79c0,0,5.65,1.65,8.54,2.07c2.89,0.41,6.7-3.07,8.75-2.13c2.25,1.03,2.02,11.22,2.02,11.22
			s-30.13,1.78-38.65-0.97C235.26,487.9,246.43,482.64,257.98,478.79z"/>
		<path class="st3" d="M327.56,467.6c0,0,0.71,12.46,0.71,12.49c0.26,1.58,1.28,5.49,1.28,6.93c0,5.4-24.05-4.59-18.66-6.98
			c0.49-0.22,3.8-3.08,3.96-4.92c0.25-2.83,0.12-7.34,0.12-7.34L327.56,467.6z"/>
		<path class="st0" d="M310.95,479.99c0,0,5.64,1.65,8.54,2.07c2.89,0.41,6.7-3.07,8.75-2.13c2.25,1.04,2.34,10.35,2.34,10.35
			s-32.22,2.34-39.79,0.14C287.38,489.43,299.41,483.84,310.95,479.99z"/>
		<path class="st9" d="M289.45,287.68l-10.17,4.39L257.9,394.18l0.87,76.56l17.14,0.4c0,0,7.97-66.97,7.97-72.16
			c0-5.19,36.93-90.82,36.93-90.82L289.45,287.68z"/>
		<path class="st6" d="M297.3,293.3c0,0,7.49,78.68,7.49,91.94c0,13.26,6.07,87.49,6.07,87.49l17.18-0.1c0,0,1.24-22.63,3.08-55.91
			c0.29-5.21-0.37-15.73,0-21.13c2.67-38.82,7.96-75.36,5.43-89.84c-0.41-2.33-1.17-8.43-2.66-9.97
			C322.65,284.14,297.3,293.3,297.3,293.3z"/>
		<path class="st5" d="M276.34,231.2l20.79-1.39c0,0,1.03-18.59,1.03-27.45c0-10.76,3.28-26.61,2-26.32
			c-3.6,0.84-9.81,4.15-12.69,8.16C277.48,198.1,276.34,231.2,276.34,231.2z"/>
		<path class="st1" d="M325.6,175.63c0,0,11.86,1.65,14.98,3.94c3.51,2.58,7.42,8.36,7.42,8.36s-14.56,68.81-14.58,80.39
			c-0.02,8.96,3.15,30.96,3.15,30.96s-43.99,2.78-60.65-3.8c0,0,5.26-26.16,5.26-33.03c0-6.87,6.29-69.33,7.73-73.7
			c1.3-3.96,3.67-11.07,11.71-12.82C308.65,174.17,325.6,175.63,325.6,175.63z"/>
		<path class="st3" d="M322.36,157.1l2.94,19.22c0,0-10.72,22.88-17.12,20.9c-5.37-1.66-2.07-21.91-2.07-21.91
			s2.93-10.87,2.05-16.31C307.29,153.55,322.36,157.1,322.36,157.1z"/>
		<path class="st7" d="M308.16,158.99c-0.88-5.44,14.2-1.89,14.2-1.89l0.24,1.59c-0.44,1.07-0.98,1.98-1.64,2.68
			c-3.37,3.6-8.63,5.76-13.18,5.93C308.24,164.37,308.52,161.22,308.16,158.99z"/>
		<g>
			<path class="st3" d="M324.84,129.92c0.43-0.15,3.42,21.89-2.26,27.95c-5.67,6.06-16.73,8.05-20.69,3.27
				c-4.39-5.28-4.16-28.97,4.66-35.21C315.36,119.69,324.84,129.92,324.84,129.92z"/>
			<path class="st0" d="M309.9,114.14c6.82,1.38,11.23,5.52,12.86,7.28c3.1,0.36,7.3,2.06,11.65,9.21c5.34,8.79,1.4,18.52-4.82,23.3
				c-6.22,4.78-6.15,10.32-6.15,10.32l-0.97-2.88c-0.73-2.16-1.02-4.45-0.78-6.72c0.15-1.36,0.44-2.83,1.01-4.04
				c1.5-3.19-3.21-5.31-4.53-7.96c-1.02-2.04-1.07-6.72-2.67-10.1l-1.91-2.58c0,0-4.41-3.41-8.73-2.45
				C300.53,128.49,301.15,112.37,309.9,114.14z"/>
			<path class="st3" d="M318.45,146.57c-0.04,2.69,1.19,4.89,2.75,4.92c1.56,0.03,2.87-2.13,2.91-4.82
				c0.04-2.69-1.19-4.89-2.75-4.92C319.8,141.72,318.5,143.88,318.45,146.57z"/>
		</g>
		<path class="st10" d="M295.36,245.63l-0.28,1.64c-0.15,0.84-0.95,1.41-1.79,1.26l-34-5.89c-0.84-0.15-1.41-0.95-1.26-1.79
			l0.28-1.64c0.15-0.84,0.95-1.41,1.79-1.26l34,5.89C294.94,243.98,295.51,244.78,295.36,245.63z"/>
		<path class="st3" d="M343.57,184.49c-3.99-0.12-7.52,26.2-4.99,28.79c2.53,2.6,3.01,35.01,3.01,35.01l-37.64-0.94l0,0.01
			c-0.73-0.49-8.62-5.79-9.75-6.94c-1.18-1.21-6.93-0.61-8.45,1.06c-1.52,1.67,3.38,0.3,4.73,1.21c1.35,0.91-1.01,3.19-1.01,3.19
			s-9.54,1.38-11.4-0.59c-1.86-1.97-6.83-5.31-7.5-3.34c-0.35,1.02,2.21,4.1,3.66,5.4c-1.8-1.35-3.96-2.78-4.7-2.53
			c-1.35,0.46-0.79,2.18-0.06,2.68c0.73,0.51,8.3,6.29,9.49,6.69c1.16,0.4,18.77,0.83,21.81,1.5c0,0,49.63,11.3,52.45,10.6
			c2.48-0.62,4.95-16.5,4.95-28.67C358.18,225.46,356.03,184.85,343.57,184.49z"/>
		<path class="st1" d="M338.39,178.49c0,0,6.94,1.6,14.11,9.66c6.52,7.33,10.63,48.37,10.63,48.37l-22.52,3.64l-1.8-19.85
			l-6.02-9.08L338.39,178.49z"/>
	</g>
	<path class="st6" d="M372.69,63.85l-2.23-5.27l-5.61-1.15c-0.64-0.13-0.85-0.94-0.36-1.36l4.32-3.75l-0.64-5.69
		c-0.07-0.65,0.63-1.1,1.19-0.76l4.9,2.95l5.21-2.36c0.59-0.27,1.24,0.26,1.09,0.89l-1.29,5.57l3.86,4.23
		c0.44,0.48,0.14,1.26-0.51,1.31l-5.7,0.49l-2.83,4.98C373.78,64.5,372.95,64.45,372.69,63.85z"/>
	<path class="st6" d="M80.74,42.63l-1.77-4.18l-4.44-0.91c-0.51-0.1-0.67-0.74-0.28-1.08l3.43-2.97l-0.5-4.51
		c-0.06-0.51,0.5-0.87,0.94-0.6L82,30.72l4.13-1.87c0.47-0.21,0.98,0.21,0.86,0.71l-1.03,4.42l3.06,3.35c0.35,0.38,0.11,1-0.41,1.04
		l-4.52,0.39l-2.24,3.94C81.6,43.15,80.94,43.11,80.74,42.63z"/>
	<polygon class="st1" points="436.56,45.93 435.04,52.04 424.94,50.69 421.62,59.35 413.9,59.57 414.01,63.48 424.34,63.18 
		427.49,54.98 437.99,56.39 440.28,47.19 	"/>
	<polygon class="st1" points="117.18,50.58 115.67,56.69 105.57,55.33 102.25,63.99 94.52,64.21 94.64,68.12 104.97,67.83 
		108.11,59.62 118.62,61.03 120.9,51.84 	"/>
	<polygon class="st1" points="189.76,32.16 184.07,34.84 178.75,26.15 169.93,29.03 164.89,23.18 161.93,25.74 168.67,33.56 
		177.02,30.83 182.56,39.87 191.13,35.84 	"/>
	<g>
		<polygon class="st6" points="371.07,25.05 361.84,27.57 359.85,16.39 362.87,15.85 364.27,23.73 370.26,22.1 		"/>
	</g>
	<g>
		<path class="st0" d="M159.57,78.74l-26.61,0.08c-2.08,0.01-3.77-1.67-3.77-3.75l0,0l34.14-0.1l0,0
			C163.33,77.05,161.65,78.74,159.57,78.74z"/>
		<g>
			<path class="st0" d="M160.46,61.79c-2.98,0.01-5.4,1.93-5.39,4.28c0.01,2.35,2.44,4.26,5.42,4.25c2.98-0.01,5.4-1.93,5.39-4.28
				C165.87,63.69,163.44,61.78,160.46,61.79z M160.48,68.39c-1.89,0.01-3.48-1.06-3.49-2.33c0-1.27,1.59-2.35,3.48-2.35
				c1.89-0.01,3.48,1.06,3.49,2.33C163.96,67.31,162.37,68.39,160.48,68.39z"/>
		</g>
		<path class="st0" d="M159.43,58.01c0.03,10.71-6.12,19.41-13.75,19.43c-7.63,0.02-13.83-8.64-13.86-19.35
			c0-1.36,6.17-2.48,13.8-2.5C153.24,55.57,159.43,56.65,159.43,58.01z"/>
		<path class="st0" d="M159.43,58.01c0,1.36-6.17,2.48-13.8,2.5c-7.63,0.02-13.81-1.06-13.81-2.42c0-1.36,6.17-2.48,13.8-2.5
			C153.24,55.57,159.43,56.65,159.43,58.01z"/>
	</g>
</g>
</svg>
