<?xml version="1.0" encoding="utf-8"?>
<!-- Generator: Adobe Illustrator 24.1.0, SVG Export Plug-In . SVG Version: 6.00 Build 0)  -->
<svg version="1.1" xmlns="http://www.w3.org/2000/svg" xmlns:xlink="http://www.w3.org/1999/xlink" x="0px" y="0px"
	 viewBox="0 0 500 500" style="enable-background:new 0 0 500 500;" xml:space="preserve">
<style type="text/css">
	.st0{display:none;}
	.st1{display:inline;}
	.st2{fill:#F9FBFC;}
	.st3{fill:#DAE8EF;}
	.st4{fill:#CCD9E2;}
	.st5{fill:#BCCED8;}
	.st6{fill:#080866;}
	.st7{fill:#1D262D;}
	.st8{fill:#0097FF;}
	.st9{fill:#20F6FF;}
	.st10{fill:#F1F2F2;}
	.st11{fill:url(#SVGID_1_);}
	.st12{fill:url(#SVGID_2_);}
	.st13{fill:#F7B094;}
	.st14{fill:#3D3D7A;}
	.st15{fill:#0A2033;}
	.st16{fill:#30475E;}
	.st17{fill:url(#SVGID_3_);}
	.st18{fill:#56548C;}
	.st19{fill:url(#SVGID_4_);}
	.st20{fill:#20839E;}
	.st21{fill:#20CED0;}
	.st22{fill:url(#SVGID_5_);}
	.st23{fill:#E8987C;}
	.st24{fill:url(#SVGID_6_);}
	.st25{fill:#6DD9D8;}
	.st26{fill:#ABB5BA;}
	.st27{fill:#8495A0;}
	.st28{fill:none;}
	.st29{fill:#141B56;}
	.st30{fill:#95A8B5;}
	.st31{fill:#A5B7C6;}
</style>
<g id="BACKGROUND" class="st0">
	<g class="st1">
		<rect class="st2" width="500" height="500"/>
		<path class="st3" d="M465.68,304.58l-15.77,110.71H49l-11.84-84.46c-1.32-9.46,3.91-18.63,12.74-22.3l35.58-14.77v-35.39
			c0-10.43,7.63-19.27,17.95-20.77l8.41-1.23l14.13-47.79c2.63-8.93,10.83-15.04,20.12-15.04h144.56c5.5,0,10.54,2.12,14.29,5.61
			c3.76,3.5,6.23,8.37,6.63,13.85l68.84,7.27c10.22,1.09,18.14,9.39,18.75,19.64l2.78,47.75l48.64,13.74
			C460.72,284.28,467.16,294.18,465.68,304.58z"/>
		<path class="st4" d="M73.03,327.42l12.52,87.88h318.23l9.4-67.04c1.05-7.51-3.11-14.79-10.11-17.7l-28.24-11.72v-28.09
			c0-8.28-6.06-15.29-14.25-16.48l-6.68-0.98l-11.22-37.93c-2.09-7.09-8.6-11.93-15.97-11.93H211.96c-4.37,0-8.36,1.68-11.34,4.45
			c-2.98,2.78-4.95,6.64-5.27,11l-54.64,5.77c-8.11,0.86-14.4,7.45-14.89,15.59l-2.21,37.9l-38.61,10.91
			C76.97,311.3,71.86,319.16,73.03,327.42z"/>
		<path class="st5" d="M335.57,382.55c0-9.47-6.93-17.5-16.31-18.87l-7.64-1.12l-12.84-43.41c-2.39-8.11-9.84-13.66-18.28-13.66
			H149.18c-5,0-9.57,1.93-12.98,5.1c-3.41,3.18-5.66,7.6-6.03,12.58l-56.86,6l12.26,86.12h251.44l-1.44-0.6V382.55z"/>
	</g>
</g>
<g id="OBJECTS">
	<g>
		<g>
			<g>
				<g>
					<rect x="104.75" y="128.28" class="st6" width="112.93" height="105.41"/>
				</g>
				<g>
					<rect x="104.75" y="128.28" class="st7" width="112.93" height="11.15"/>
				</g>
				<g>
					<g>
						<path class="st8" d="M193.27,133.98c0,1.13-0.91,2.04-2.04,2.04c-1.13,0-2.04-0.91-2.04-2.04s0.91-2.04,2.04-2.04
							C192.36,131.93,193.27,132.85,193.27,133.98z"/>
					</g>
					<g>
						<path class="st9" d="M201.8,133.98c0,1.13-0.91,2.04-2.04,2.04c-1.13,0-2.04-0.91-2.04-2.04s0.91-2.04,2.04-2.04
							C200.89,131.93,201.8,132.85,201.8,133.98z"/>
					</g>
					<g>
						<path class="st2" d="M209.73,134.19c0,1.13-0.91,2.04-2.04,2.04c-1.13,0-2.04-0.91-2.04-2.04s0.91-2.04,2.04-2.04
							C208.81,132.15,209.73,133.06,209.73,134.19z"/>
					</g>
				</g>
				<g>
					<g>
						<g>
							<rect x="124.83" y="149.79" class="st9" width="15.99" height="1.34"/>
						</g>
						<g>
							<rect x="143.6" y="149.79" class="st2" width="15.99" height="1.34"/>
						</g>
						<g>
							<rect x="129.78" y="157.03" class="st8" width="24.8" height="1.34"/>
						</g>
						<g>
							<rect x="158.68" y="157.03" class="st9" width="12.61" height="1.34"/>
						</g>
						<g>
							<rect x="138.38" y="164.27" class="st2" width="10.89" height="1.34"/>
						</g>
						<g>
							<rect x="155.57" y="164.27" class="st2" width="36.14" height="1.34"/>
						</g>
						<g>
							<rect x="146.84" y="171.51" class="st8" width="41.3" height="1.34"/>
						</g>
						<g>
							<rect x="136.52" y="178.75" class="st9" width="12.71" height="1.34"/>
						</g>
						<g>
							<rect x="154.67" y="178.75" class="st8" width="12.71" height="1.34"/>
						</g>
					</g>
					<g>
						<g>
							<rect x="124.83" y="216.33" class="st9" width="18.49" height="1.34"/>
						</g>
						<g>
							<rect x="149.8" y="216.33" class="st2" width="18.49" height="1.34"/>
						</g>
						<g>
							<rect x="174.09" y="216.33" class="st9" width="18.49" height="1.34"/>
						</g>
						<g>
							<rect x="129.78" y="209.08" class="st8" width="36.14" height="1.34"/>
						</g>
						<g>
							<rect x="171.55" y="209.08" class="st9" width="36.14" height="1.34"/>
						</g>
						<g>
							<rect x="138.38" y="201.84" class="st9" width="35.86" height="1.34"/>
						</g>
						<g>
							<rect x="177.37" y="201.84" class="st2" width="9.98" height="1.34"/>
						</g>
						<g>
							<rect x="136.04" y="194.6" class="st2" width="13.5" height="1.34"/>
						</g>
						<g>
							<rect x="156.71" y="194.6" class="st8" width="13.5" height="1.34"/>
						</g>
						<g>
							<rect x="178.89" y="194.6" class="st9" width="13.5" height="1.34"/>
						</g>
						<g>
							<rect x="151.69" y="187.36" class="st2" width="18.93" height="1.34"/>
						</g>
						<g>
							<rect x="125.62" y="187.36" class="st8" width="18.93" height="1.34"/>
						</g>
					</g>
				</g>
				<g>
					<g>
						<g>
							<rect x="114.36" y="148.5" class="st2" width="1.72" height="1.72"/>
						</g>
					</g>
					<g>
						<g>
							<path class="st2" d="M116.08,211.63h-1.72v-3.51h1.72V211.63z M116.08,202.86h-1.72v-3.51h1.72V202.86z M116.08,194.09h-1.72
								v-3.51h1.72V194.09z M116.08,185.31h-1.72v-3.51h1.72V185.31z M116.08,176.54h-1.72v-3.51h1.72V176.54z M116.08,167.76h-1.72
								v-3.51h1.72V167.76z M116.08,158.99h-1.72v-3.51h1.72V158.99z"/>
						</g>
					</g>
					<g>
						<g>
							<rect x="114.36" y="216.9" class="st2" width="1.72" height="1.72"/>
						</g>
					</g>
				</g>
			</g>
			<g>
				<g>
					<rect x="241.98" y="105.88" class="st9" width="92.99" height="57.32"/>
				</g>
				<g>
					<path class="st2" d="M278.1,128.94l-11.06,4.72l11.06,4.65l-1.45,3.34l-13.27-5.93v-4.1l13.27-5.96L278.1,128.94z"/>
					<path class="st2" d="M294.4,118.01l-8.03,30.85l-3.83-0.9l8.07-30.81L294.4,118.01z"/>
					<path class="st2" d="M313.6,131.63v4.1l-13.27,5.93l-1.45-3.34l11.03-4.65l-11.03-4.72l1.45-3.27L313.6,131.63z"/>
				</g>
			</g>
			<g>
				<g>
					<rect x="331.78" y="216.93" class="st8" width="52.97" height="37.73"/>
				</g>
				<g>
					<path class="st10" d="M353.94,225.08c-1.7,0-2.27,0.46-2.27,1.73v5.68c0,2.22-0.92,2.89-2.46,3.33
						c1.54,0.41,2.46,1.08,2.46,3.27v5.68c0,1.27,0.59,1.73,2.27,1.73v2.49c-4.3,0-5.52-1.38-5.52-4.25v-5.38
						c0-1.54-0.41-2.14-1.81-2.14v-2.84c1.41,0,1.81-0.62,1.81-2.16v-5.38c0-2.89,1.22-4.25,5.52-4.25V225.08z"/>
					<path class="st10" d="M368.11,226.83v5.38c0,1.54,0.41,2.16,1.84,2.16v2.84c-1.43,0-1.84,0.59-1.84,2.14v5.38
						c0,2.87-1.22,4.25-5.52,4.25v-2.49c1.68,0,2.27-0.46,2.27-1.73v-5.68c0-2.19,0.92-2.87,2.46-3.27
						c-1.54-0.43-2.46-1.11-2.46-3.33v-5.68c0-1.27-0.57-1.73-2.27-1.73v-2.49C366.89,222.59,368.11,223.94,368.11,226.83z"/>
				</g>
			</g>
			<g>
				<g>
					<rect x="68.81" y="114.1" class="st8" width="59.42" height="39.74"/>
				</g>
				<g>
					<g>
						<path class="st2" d="M88.47,125.51c-2.84,3.55-2.79,8.74,0.1,12.25c3.28,3.99,8.91,4.63,12.95,1.93l6.24,6.24
							c0.26,0.26,0.69,0.26,0.95,0l1.75-1.75c0.26-0.26,0.26-0.69,0-0.95l-6.24-6.24c2.53-3.79,2.12-8.97-1.22-12.31
							C98.95,120.62,92.16,120.89,88.47,125.51z M100.99,136.45c-2.69,2.69-7.06,2.69-9.75,0c-2.69-2.69-2.69-7.06,0-9.75
							c2.69-2.69,7.06-2.69,9.75,0C103.68,129.39,103.68,133.76,100.99,136.45z"/>
					</g>
				</g>
			</g>
			<g>
				<g>
					<radialGradient id="SVGID_1_" cx="286.8326" cy="236.2371" r="14.963" gradientUnits="userSpaceOnUse">
						<stop  offset="0" style="stop-color:#FFC8AF"/>
						<stop  offset="1" style="stop-color:#FFBB9C"/>
					</radialGradient>
					<path class="st11" d="M301.08,236.87c-0.13,1.31-1.92,15.02-16.02,15.02c-14.8,0-12.32-14.65-12.32-14.65l-0.02-0.09
						c1.44-0.3,3-0.41,4.64-0.22v-6.94l16.79-9.4h0.61v16.18C294.77,236.77,297.43,236.46,301.08,236.87z"/>
					<g>
						<g id="XMLID_43_">
							<g>
								
									<radialGradient id="SVGID_2_" cx="279.1005" cy="210.17" r="23.5897" gradientTransform="matrix(0.9776 -0.2105 0.2105 0.9776 -38.9136 62.4417)" gradientUnits="userSpaceOnUse">
									<stop  offset="0" style="stop-color:#FFC8AF"/>
									<stop  offset="1" style="stop-color:#FFBB9C"/>
								</radialGradient>
								<path class="st12" d="M292.92,189.63c2.38,2.42,4.18,5.54,5.05,9.36c1.61,7.11,0.1,14.64-1.97,21.5
									c-0.35,1.17-0.75,2.36-1.48,3.34c-0.52,0.7-1.18,1.28-1.84,1.86c-2.99,2.6-5.97,5.2-8.95,7.81
									c-2.02,1.77-14.46,3.24-16.83,1.54c-9.15-6.54-10.91-25.49-9.08-35.18C260.86,183.8,281.51,178.05,292.92,189.63z"/>
							</g>
						</g>
						<path class="st13" d="M287.78,210.19c0.12-1.55,1.71-3.24,3.31-2.24c1.65,1.04,1.26,3.79,0.58,5.3
							c-0.54,1.19-2.33,2.48-3.55,1.38c-1.02-0.92,0.57-2.01,0.62-2.86c0.05-0.76-1.47-1.3-0.85-2.12"/>
						<path class="st13" d="M288.08,217.35c1.67,0.5,4.49-0.77,5.21-3.09c0.71-2.32,0.64-4.97,0.64-4.97s0.84,2.1,0.41,5.48
							s-1.62,6.6-4.27,6.65C287.4,221.45,288.08,217.35,288.08,217.35z"/>
						<path class="st14" d="M286.03,214.94c-0.05,0.03-0.12,0.05-0.19,0.06c-1.03,0.14-1.44-1.1-1.6-1.89
							c-0.36-1.83-0.3-3.67-0.37-5.52c-0.01-0.46,0.02-1.04-0.17-1.47c-0.58-1.33-2.13-2.19-2.6-3.56c-0.55-1.6,1-3.19,0.39-4.93
							c-0.94-2.67-4.38-3.29-6.86-3.26c-3.73,0.04-7.36,0.74-11.04,1.31c-3.88,0.6-8.85,1.17-12.27-1.28
							c-4.13-2.96-5.85-10.68-2.77-14.9c1.68-2.3,4.86-3.53,7.65-3.59c2.96-0.07,5.45,1.69,8.16,2.58c2.16,0.71,4.25-1.36,6.27-1.76
							c2.54-0.51,3.61,2.26,5.86,2.34c2.18,0.07,4.32-1.63,6.44-2.02c4.23-0.77,3.98,3.47,6.81,4.92c1.76,0.9,4.04,0.36,5.82,1.27
							c1.35,0.7,1.54,1.92,1.84,3.3c0.26,1.2,0.27,2.58,0.66,3.72c0.35,1.02,1.21,1.67,1.88,2.47c0.73,0.87,1.2,1.89,1.57,2.99
							c0.82,2.43,1.01,5.05,0.78,7.59c-0.38,4.27-1.75,8.47-3.18,12.49c-0.93,2.61-1.27,5.32-2.69,7.79
							c-0.38,0.66-2.08,2.6-2.71,1.16c-0.14-0.31-0.11-0.66-0.09-1c0.19-2.69,2.69-20.01-3.87-17.93c-1.38,0.44-2.3,1.58-2.82,2.89
							c-0.61,1.56-0.66,3.14-0.58,4.79c0.01,0.24,0.02,0.47,0.01,0.71C286.37,214.5,286.29,214.81,286.03,214.94z"/>
					</g>
				</g>
				<path class="st13" d="M277.37,235.33c7.46-1.2,12.39-7.09,12.39-7.09s-2.01,9.93-12.83,10.46L277.37,235.33z"/>
				<g>
					<path class="st15" d="M289.62,370.74h10.68v102.74c0,0.9-0.73,1.63-1.63,1.63h-7.43c-0.9,0-1.63-0.73-1.63-1.63V370.74z"/>
					<path class="st16" d="M265.59,372.21h58.74v2.6c0,3.49-2.83,6.31-6.31,6.31H271.9c-3.49,0-6.31-2.83-6.31-6.31V372.21z"/>
					<g>
						<path class="st15" d="M289.62,462.96h10.68v24c0,0.9-0.73,1.63-1.63,1.63h-7.43c-0.9,0-1.63-0.73-1.63-1.63V462.96z"/>
						<path class="st15" d="M239.53,482.33c0,3.45,2.8,6.25,6.25,6.25c3.45,0,6.25-2.8,6.25-6.25c0-3.45-2.8-6.25-6.25-6.25
							C242.33,476.08,239.53,478.88,239.53,482.33z"/>
						<path class="st15" d="M337.88,482.33c0,3.45,2.8,6.25,6.25,6.25c3.45,0,6.25-2.8,6.25-6.25c0-3.45-2.8-6.25-6.25-6.25
							C340.68,476.08,337.88,478.88,337.88,482.33z"/>
						
							<rect x="284.21" y="455" transform="matrix(-1 -1.224647e-16 1.224647e-16 -1 589.9119 928.7701)" class="st16" width="21.49" height="18.78"/>
						<path class="st8" d="M239.53,478.19h110.85v-3.08c0-3.18-2.58-5.75-5.75-5.75h-99.35c-3.18,0-5.75,2.58-5.75,5.75V478.19z"/>
					</g>
					<rect x="291.25" y="383.23" class="st16" width="3.71" height="70.09"/>
				</g>
				<path class="st8" d="M336.92,296.46c-2.56-0.08-4.65,2.04-4.5,4.6c0.73,12.72-1.96,43.76-13.81,54.35
					c-14.49,12.95-55.55,11.18-55.55,11.18s-6.78,8.32,6.78,10.17c13.56,1.85,51.79,0.62,61.04-8.01
					c8.95-8.36,14.27-30.24,10.26-68.34C340.9,298.22,339.12,296.53,336.92,296.46L336.92,296.46z"/>
				<g id="XMLID_42_">
					<g>
						<radialGradient id="SVGID_3_" cx="254.9316" cy="462.1716" r="9.4068" gradientUnits="userSpaceOnUse">
							<stop  offset="0" style="stop-color:#FFC8AF"/>
							<stop  offset="1" style="stop-color:#FFBB9C"/>
						</radialGradient>
						<polygon class="st17" points="259.98,453.32 264.86,464.46 249.9,471.02 245,459.85 						"/>
						<path class="st18" d="M330.54,329.57c-0.92,1.85-67.41,0.04-73.69,0.61c0,0-40.69,19.42-46.54,37.6
							c-0.59,1.83-0.76,4.25-0.57,7.14c1.63,25.6,30.78,86.89,30.78,86.89l4.48-1.96l14.98-6.53l2.13-0.92c0,0-23.12-68.9-18.5-72.6
							s57.02-12.95,75.2-17.87C337.02,357,330.54,329.57,330.54,329.57z"/>
						<radialGradient id="SVGID_4_" cx="195.3551" cy="464.5309" r="8.5683" gradientUnits="userSpaceOnUse">
							<stop  offset="0" style="stop-color:#FFC8AF"/>
							<stop  offset="1" style="stop-color:#FFBB9C"/>
						</radialGradient>
						<polygon class="st19" points="202.94,456.19 204.11,472.91 187.77,472.91 186.6,456.15 						"/>
						<path class="st14" d="M256.52,329.6l-0.59,0.26c0,0-68.12,9.56-79.22,28.67c-7.21,12.43,6.75,103.25,6.75,103.25l24.1,0.06
							c0,0-3.6-75.65-2.4-79.87c1.35-4.81,3.66-6.55,4.59-7.05c-0.18-2.89-0.02-5.31,0.57-7.14c5.84-18.18,46.54-37.6,46.54-37.6
							C256.73,330.08,256.61,329.88,256.52,329.6z"/>
						<path class="st9" d="M322.32,266.66l-4.57,0.63c0,0-1.11,12.32-3.83,24.64l-56.91,21.6l-0.78,4.12
							c-0.24-0.02-0.48-0.04-0.7-0.06c0.02,0.85,0.02,1.68,0.06,2.46c0.13,4.75,0.44,8.18,0.94,9.54c0.09,0.28,0.2,0.48,0.33,0.57
							c1.55,1.26,21.67-1.18,43.44,6.81c18.87,6.93,29.45,14.5,29.94,13.48C336.17,338.14,325.37,289.75,322.32,266.66z"/>
						<path class="st20" d="M316.38,294.89c-1.52,7.29-5.44,21.79-13.13,23.73c-10.04,2.55-29.46,2.42-47.66,1.44
							c-0.04-0.78-0.04-1.61-0.06-2.46c0.22,0.02,0.46,0.04,0.7,0.06l0.78-4.12l56.91-21.6c2.72-12.32,3.83-24.64,3.83-24.64
							s0,0.07,0.02,0.2C317.88,269.4,318.66,284.12,316.38,294.89z"/>
						<path class="st21" d="M259.33,248.48c-1.02,1.85-2.48,21.64-3.27,41.28l-11.63-10.86
							C249.36,269.34,259.33,248.48,259.33,248.48z"/>
						<path class="st13" d="M252.36,304.12c-9.82,1.7-18.85,3.16-18.85,3.16l-0.02,0.48c-10.93-8.73-27.56-33.46-27.56-33.46
							s4.98-5.97,6.21-7.55c0.18-0.24,27.3,18.42,28.69,18.26c0.35-0.04,1.74-2.48,3.59-6.1l11.63,10.86
							c-0.18,4.68-0.33,9.34-0.43,13.76C254.54,303.73,253.45,303.91,252.36,304.12z"/>
						<radialGradient id="SVGID_5_" cx="247.5203" cy="303.7489" r="47.9772" gradientUnits="userSpaceOnUse">
							<stop  offset="0" style="stop-color:#FFC8AF"/>
							<stop  offset="1" style="stop-color:#FFBB9C"/>
						</radialGradient>
						<path class="st22" d="M233.51,307.28l-0.24,8.1h-29.59c0,0,2.94-11.56,10.95-11.56s11.1,4.24,11.1,4.24L233.51,307.28z"/>
						<path class="st13" d="M211.93,266.57l0.22,0.18c-1.24,1.57-6.21,7.55-6.21,7.55l-3.09-2.18c0,0-3.4,2.07-7.36-0.09
							c-4.12-2.24-1.57-7.58-1.36-8.21c-0.8,0.23-5.74,4.22-6.52,3.79c-0.78-0.43-1.35-1.83,4.18-7.29
							c5.51-5.46,13.02,1.55,13.24,1.55L211.93,266.57z"/>
						<path class="st13" d="M196.13,271.1c0,0-1.19,2.23,0.93,3.2c2.12,0.97,6.24,1.67,8.02,1.5c1.77-0.17,3.18-2.65,3.18-2.65
							l-5.37-5.03h-4.29L196.13,271.1z"/>
						<path class="st23" d="M195.81,272.19c0.32-1.1,3.36-0.51,5.25-0.47c1.39,0.03,2.15-0.33,2.58-1.39
							c0.43-1.06-1.59-2.75-1.99-2.22c-0.4,0.53,0.73,1.28,0.76,1.98c0.03,0.7-1.99,0.94-3.54,0.94c-1.56,0-4.24,0.41-4.24,0.41
							L195.81,272.19z"/>
					</g>
				</g>
				<radialGradient id="SVGID_6_" cx="247.5203" cy="303.7489" r="47.9769" gradientUnits="userSpaceOnUse">
					<stop  offset="0" style="stop-color:#FFC8AF"/>
					<stop  offset="1" style="stop-color:#FFBB9C"/>
				</radialGradient>
				<path class="st24" d="M311.03,302.43l-28.98-10.27c-2.11,3.94-4.36,6.9-6.6,7.49c-3.38,0.89-11.56,2.42-19.81,3.87
					c-1.09,0.2-2.18,0.39-3.27,0.59c-9.82,1.7-18.85,3.16-18.85,3.16l-0.02,0.48v0.31l-0.22,7.31v1.85c0,0,9.84-0.5,22.25,0.37
					c17.37,1.24,39.77,1.98,47.18-1.52c3.48-1.65,6.25-7.05,8.43-13.71C311.1,302.4,311.07,302.41,311.03,302.43z"/>
				<polygon class="st21" points="282.05,292.17 311.03,302.43 309.72,306.31 281.03,294 				"/>
				<path class="st9" d="M282.05,292.17c-2.11,3.94-4.37,6.9-6.6,7.49c-3.38,0.89-11.56,2.42-19.81,3.87
					c0.09-4.42,0.24-9.08,0.43-13.76c0.8-19.64,2.26-39.43,3.27-41.28c1.66-3.09,6.21-9.8,13.39-11.34l0.02,0.09
					c0,0-2.48,14.65,12.32,14.65c14.09,0,15.89-13.71,16.02-15.02c7.25,0.81,18.37,4.44,19.9,19.01c0.31,2.89,0.76,6.58,1.33,10.78
					l-4.57,0.63c0,0-1.85,20.53-6.6,35.09c-0.04,0.02-0.07,0.04-0.11,0.06L282.05,292.17z"/>
				<polygon class="st25" points="281.75,289.5 293.32,261.48 284.79,290.63 				"/>
				<path class="st9" d="M301.08,236.87h-6.31c0,0-8.98,9.86-14.75,9.86c-5.77,0-2.66-9.8-2.66-9.8h-2.81
					c-8.09,0-14.89,6.07-15.81,14.11c-0.1,0.92-0.2,1.79-0.28,2.58c-0.62,5.96,23.53,10.3,23.53,10.3l12.44-0.7l7.55-14.73l1.5-6.03
					L301.08,236.87z"/>
				<g>
					<g>
						<g id="XMLID_39_">
							<g>
								<path class="st10" d="M224.97,483.84c0.56,3.01,2.65,5.16,5.66,4.59l40.17-7.49c1.02-0.19,1.69-1.17,1.5-2.18l-0.66-3.56
									c0,0-42.25,7.39-46.69,8.62L224.97,483.84z"/>
								<path class="st14" d="M236.92,473.72c0.42-0.36,0.82-0.72,1.24-1.09c0.81-0.72,1.6-1.42,2.36-2.1
									c0.4-0.36,0.81-0.72,1.18-1.06c0.73-0.66,1.42-1.27,2.04-1.83c0.45-0.4,0.86-0.78,1.24-1.12c0.69-0.62,1.25-1.12,1.64-1.47
									c0.34-0.3,0.85-0.32,1.2-0.03c1.65,1.39,6.99,4.56,16.66-1.42c0.46-0.28,1.07-0.14,1.32,0.34l5.85,11.24
									c0,0-42.25,7.39-46.69,8.62C226.41,482.9,231.8,478.24,236.92,473.72z"/>
							</g>
						</g>
					</g>
				</g>
				<g>
					<g>
						<g id="XMLID_44_">
							<g>
								<path class="st10" d="M161.71,483.44c0.07,3.06,1.8,5.51,4.86,5.44l40.85-1c1.03-0.03,1.85-0.88,1.83-1.92l-0.09-3.62
									c0,0-42.89,0.57-47.46,1.08L161.71,483.44z"/>
								<path class="st14" d="M175.12,475.36c0.47-0.29,0.93-0.58,1.4-0.88c0.91-0.58,1.8-1.15,2.67-1.7
									c0.46-0.29,0.91-0.58,1.33-0.86c0.83-0.53,1.61-1.03,2.31-1.48c0.5-0.33,0.98-0.63,1.4-0.91c0.78-0.5,1.41-0.9,1.85-1.19
									c0.38-0.25,0.89-0.18,1.18,0.17c1.41,1.63,6.17,5.62,16.67,1.25c0.5-0.21,1.07,0.04,1.24,0.55l3.98,12.02
									c0,0-42.89,0.57-47.46,1.08C163.28,482.75,169.34,479,175.12,475.36z"/>
							</g>
						</g>
					</g>
				</g>
				<g>
					<polygon class="st26" points="132.65,317.23 110.83,259.05 172.94,259.05 194.76,317.23 					"/>
					<polygon class="st27" points="198.6,317.23 194.76,317.23 172.94,259.05 176.43,259.2 196.61,311.87 					"/>
					<polyline class="st28" points="114.17,310.95 114.49,310.95 192.37,310.95 					"/>
					<g>
						<path class="st27" d="M197.39,317.23h41.04l-0.11-3.67c0,0-41.08,0-41.77,0"/>
					</g>
				</g>
				<g>
					<g>
						<rect x="362.36" y="328.33" class="st27" width="9.88" height="162.34"/>
					</g>
					<g>
						<rect x="308.73" y="328.33" class="st26" width="9.88" height="162.34"/>
					</g>
					<g>
						<rect x="136.89" y="328.33" class="st27" width="9.88" height="162.34"/>
					</g>
					<g>
						<rect x="83.25" y="328.33" class="st26" width="9.88" height="162.34"/>
					</g>
					<path class="st29" d="M382.79,328.95H73.13c-2.29,0-4.15-1.86-4.15-4.15v-3.42c0-2.29,1.86-4.15,4.15-4.15h309.66
						c2.29,0,4.15,1.86,4.15,4.15v3.42C386.94,327.09,385.08,328.95,382.79,328.95z"/>
				</g>
				<polygon class="st27" points="121.2,265.16 122.26,268 134.64,268 133.57,265.16 				"/>
				<polygon class="st20" points="244.43,278.91 243.54,280.62 256.06,293.56 256.06,289.76 				"/>
			</g>
		</g>
		<g>
			<rect y="488.58" class="st6" width="500" height="11.42"/>
			<g>
				<g>
					<path class="st8" d="M420.73,403.9c-1.99,9.64-1.39,26.05-14.14,28.65c-3.43,0.7-6.75-1.68-8.75-4.41
						c-2.61-3.57-3.24-11.12-3.19-15.44c0.04-3.42,1.2-7.24,1.58-10.7c0.41-3.73,0.74-7.47,1.17-11.2
						c1.57-13.44,8.59-24.7,20.46-31.41c0.92,4.41,3.01,8.14,4.86,12.38c0.84,1.93,1.6,3.97,2.15,5.99c0.97,3.58-0.2,7.2-1.08,10.64
						C422.51,393.48,421.79,398.77,420.73,403.9z"/>
					<path class="st6" d="M404.43,432.88c0.09-0.81,0.19-1.62,0.3-2.42c1.52,0,3.11-0.87,4.39-1.53c2.22-1.15,4.02-2.8,5.76-4.56
						c0.09-0.09-0.06-0.25-0.16-0.16c-1.74,1.46-3.54,2.87-5.61,3.84c-1.15,0.54-2.84,1.42-4.26,1.59c0.13-0.96,0.28-1.93,0.44-2.89
						c1.59-0.19,3.04-1.24,4.38-2.03c2.28-1.35,4.25-3.11,6.28-4.8c0.02-0.02,0-0.05-0.03-0.04c-3.11,2.26-6.58,5.48-10.52,6.18
						c0.21-1.2,0.43-2.4,0.68-3.6c0.01-0.06,0.03-0.12,0.04-0.19c4.56-1.15,7.64-4.73,11.13-7.62c0.06-0.05,0-0.14-0.06-0.1
						c-3.44,2.67-6.67,5.72-10.91,7.01c0.37-1.71,0.75-3.41,1.14-5.11c4.12-1.52,7.42-3.94,10.3-7.3c0.05-0.06-0.03-0.14-0.08-0.08
						c-2.98,3.11-6.27,4.89-10.05,6.66c0.38-1.68,0.76-3.36,1.12-5.05c1.78-0.88,3.66-1.41,5.31-2.56c1.63-1.14,3.08-2.49,4.13-4.19
						c0.06-0.09-0.08-0.17-0.14-0.09c-2.31,3.32-5.79,4.35-9.15,6.09c0.33-1.57,0.63-3.15,0.91-4.74c3.75-2.06,7.82-3.98,9.94-7.93
						c0.02-0.04-0.03-0.08-0.06-0.04c-2.25,3.63-6.18,5.2-9.75,7.17c0.05-0.28,0.1-0.56,0.14-0.85c0.23-1.47,0.44-2.94,0.66-4.42
						c2.15-0.86,4.2-2.08,6.14-3.34c1.37-0.9,2.84-1.78,3.74-3.19c0.06-0.09-0.07-0.18-0.13-0.09c-2.01,2.88-6.41,4.54-9.66,5.98
						c0.21-1.49,0.42-2.98,0.63-4.46c3.61-2.18,7.85-3.39,10.07-7.32c0.07-0.12-0.1-0.22-0.18-0.11c-2.3,3.59-6.35,4.7-9.79,6.74
						c0.13-0.92,0.27-1.84,0.41-2.76c3.89-1.43,8.42-4.69,10.48-8.21c0.11-0.19-0.17-0.37-0.29-0.19c-2.09,3.09-6.3,6.45-10.07,7.67
						c0.23-1.49,0.47-2.98,0.74-4.47c0.03-0.04,0.05-0.08,0.06-0.13c1.75-0.51,3.48-1.75,4.99-2.68c1.82-1.12,3.56-2.43,4.69-4.27
						c0.13-0.2-0.21-0.39-0.32-0.18c-1.73,3.09-5.84,5.16-9.23,6.34c0.1-0.54,0.2-1.09,0.31-1.63c0.16-0.81,0.33-1.62,0.49-2.43
						c1.39-0.96,3.16-1.42,4.56-2.44c1.21-0.88,2.27-1.94,3.32-3.02c0.1-0.11-0.05-0.27-0.16-0.17c-1.41,1.33-2.86,2.6-4.58,3.52
						c-0.96,0.51-2.05,0.81-2.98,1.37c0.27-1.32,0.54-2.65,0.8-3.97c0.02,0,0.03-0.01,0.05-0.01c0.02,0,0.03,0.01,0.05,0.01
						c0.1,0.02,0.17-0.02,0.23-0.07c1.89-0.48,3.34-2.11,4.61-3.49c0.03-0.03-0.02-0.08-0.05-0.05c-1.33,1.23-2.85,2.6-4.64,3.13
						c-0.01,0-0.01-0.01-0.02-0.01c-0.05-0.01-0.09-0.01-0.14-0.02c0.21-1.08,0.4-2.16,0.58-3.24c0.14-0.02,0.26-0.14,0.22-0.28
						c1-0.67,1.91-1.53,2.77-2.37c0.06-0.06-0.03-0.16-0.09-0.1c-0.89,0.77-1.77,1.4-2.77,1.95c0.35-2.24,0.63-4.48,0.75-6.76
						c0.01-0.21-0.31-0.21-0.33-0.01c-0.2,2.19-0.52,4.35-0.89,6.51c-1.04-1.37-2.21-2.78-2.84-4.35c-0.03-0.08-0.16-0.05-0.13,0.04
						c0.31,0.97,0.85,1.82,1.38,2.69c0.48,0.77,0.86,1.68,1.47,2.36c-0.21,1.16-0.44,2.31-0.68,3.46c-1.27-0.2-2.43-0.44-3.48-1.36
						c-1.28-1.12-2.01-2.65-2.14-4.35c-0.02-0.21-0.34-0.21-0.33,0c0.14,1.58,0.77,3.06,1.85,4.24c1.14,1.24,2.47,1.63,3.99,1.95
						c-0.28,1.33-0.57,2.66-0.86,3.99c-1.15-0.69-2.22-1.59-3.26-2.42c-1.68-1.34-2.67-2.94-4.12-4.45
						c-0.15-0.15-0.38,0.07-0.24,0.22c1.36,1.45,2.29,3.02,3.84,4.32c1.12,0.94,2.35,2.11,3.68,2.81c-0.02,0.07-0.03,0.14-0.05,0.21
						c-0.01,0.01-0.03,0.02-0.04,0.04c-0.1,0.1-0.09,0.21-0.03,0.3c-0.28,1.27-0.56,2.54-0.83,3.82c-0.02,0.08-0.03,0.16-0.05,0.24
						c-2.97-1.36-7.4-3.72-7.79-7.16c-0.04-0.33-0.53-0.24-0.45,0.1c0.88,3.89,5.16,5.62,8.1,7.74c-0.29,1.44-0.56,2.89-0.8,4.34
						c-1.92-0.66-3.74-1.47-5.34-2.75c-1.46-1.16-3.53-2.57-4.19-4.37c-0.02-0.06-0.1-0.02-0.09,0.04c0.61,1.79,2.47,3.02,3.82,4.24
						c1.71,1.55,3.47,2.87,5.67,3.49c-0.02,0.06-0.02,0.13-0.01,0.19c-0.15,0.92-0.3,1.84-0.44,2.76c-3.6-0.28-8.64-3.01-10.48-5.74
						c-0.01-0.01-0.03,0-0.02,0.01c1.26,2.08,3.15,3.29,5.29,4.35c1.6,0.79,3.33,1.72,5.13,1.85c-0.26,1.7-0.51,3.41-0.76,5.11
						c-1.56-0.58-3.22-0.86-4.76-1.48c-2.3-0.92-4.05-2.57-5.41-4.6c-0.08-0.12-0.29-0.02-0.21,0.11c2.49,3.96,6.08,5.13,10.28,6.61
						c-0.21,1.4-0.43,2.8-0.66,4.19c-3.44-0.66-7.89-2.76-9.63-5.74c-0.13-0.22-0.48-0.04-0.35,0.18c1.1,1.91,2.99,3.12,4.93,4.1
						c1.39,0.7,3.31,1.87,4.96,1.99c-0.01,0.05-0.01,0.09-0.02,0.14c-0.34,2.01-0.74,4.01-1.17,6c-3.84-0.97-6.33-3.81-9.12-6.48
						c-0.19-0.19-0.5,0.1-0.3,0.29c2.84,2.8,5.34,5.74,9.3,6.77c-0.35,1.62-0.73,3.24-1.12,4.85c-3.27-0.92-6.51-3.24-8.63-5.9
						c-0.15-0.19-0.41,0.07-0.27,0.26c2.2,2.89,5.37,5.08,8.75,6.27c-0.42,1.73-0.86,3.46-1.31,5.18c-3.36-0.51-5.95-2.62-8.02-5.28
						c-0.05-0.06-0.16,0.02-0.11,0.08c1.84,2.56,4.62,5.51,7.97,5.82c-0.14,0.55-0.28,1.1-0.43,1.65c-0.09,0.33-0.18,0.67-0.27,1.01
						c-2.53-0.75-4.89-1.66-6.98-3.36c-0.06-0.05-0.13,0.04-0.07,0.09c1.99,1.79,4.37,3,6.91,3.78c-0.28,1.04-0.58,2.1-0.87,3.19
						c-0.63-0.29-1.24-0.61-1.92-0.82c-1.26-0.38-2.08-1.18-3.17-1.84c-0.1-0.06-0.21,0.08-0.11,0.15c0.96,0.63,1.64,1.44,2.74,1.85
						c0.81,0.31,1.58,0.7,2.37,1.05c-1.16,4.31-2.18,8.88-1.62,13.02c0.12,0.92,1.66,1.16,1.9,0.18
						C404.13,439.15,404.09,435.95,404.43,432.88z"/>
				</g>
				<g>
					<path class="st8" d="M380.38,401.14c2.27,9.58,9.74,24.21-0.72,31.94c-2.82,2.08-6.83,1.33-9.79-0.3
						c-3.87-2.13-7.63-8.72-9.41-12.65c-1.41-3.12-1.97-7.07-3.08-10.36c-1.21-3.55-2.49-7.08-3.66-10.65
						c-4.25-12.84-2.64-26.02,5.29-37.11c2.69,3.61,6.17,6.11,9.63,9.17c1.58,1.39,3.13,2.92,4.48,4.52
						c2.39,2.84,2.86,6.62,3.51,10.1C377.6,390.94,379.17,396.05,380.38,401.14z"/>
					<path class="st6" d="M377.84,434.29c-0.26-0.77-0.51-1.55-0.75-2.32c1.38-0.65,2.45-2.1,3.33-3.24
						c1.53-1.98,2.46-4.23,3.3-6.56c0.04-0.12-0.16-0.2-0.22-0.08c-0.96,2.06-2,4.1-3.46,5.85c-0.82,0.97-1.98,2.48-3.19,3.24
						c-0.29-0.93-0.56-1.87-0.82-2.81c1.36-0.85,2.23-2.4,3.12-3.69c1.5-2.19,2.54-4.61,3.67-7c0.01-0.03-0.03-0.05-0.04-0.02
						c-1.87,3.36-3.65,7.75-6.93,10.05c-0.32-1.18-0.63-2.36-0.9-3.55c-0.01-0.06-0.03-0.12-0.04-0.19
						c3.65-2.97,4.93-7.51,6.88-11.6c0.03-0.07-0.06-0.13-0.1-0.06c-1.99,3.87-3.63,7.99-6.94,10.96c-0.39-1.7-0.76-3.41-1.13-5.11
						c3.1-3.12,5.06-6.7,6.26-10.97c0.02-0.07-0.09-0.11-0.11-0.04c-1.39,4.07-3.62,7.08-6.3,10.28c-0.36-1.69-0.73-3.37-1.12-5.05
						c1.25-1.55,2.72-2.82,3.73-4.57c0.99-1.72,1.74-3.56,1.98-5.54c0.01-0.1-0.14-0.12-0.16-0.02c-0.69,3.98-3.41,6.38-5.72,9.39
						c-0.37-1.56-0.76-3.12-1.18-4.68c2.53-3.45,5.41-6.9,5.67-11.38c0-0.04-0.06-0.06-0.07-0.01c-0.51,4.24-3.41,7.32-5.81,10.62
						c-0.08-0.28-0.15-0.55-0.23-0.83c-0.41-1.43-0.84-2.86-1.27-4.28c1.59-1.69,2.93-3.66,4.16-5.62c0.87-1.39,1.83-2.82,2.05-4.47
						c0.01-0.1-0.14-0.13-0.16-0.03c-0.61,3.46-3.89,6.82-6.23,9.5c-0.44-1.44-0.88-2.88-1.31-4.31c2.35-3.5,5.69-6.39,6.04-10.89
						c0.01-0.13-0.19-0.16-0.21-0.02c-0.57,4.23-3.77,6.94-6.03,10.24c-0.27-0.89-0.54-1.78-0.8-2.68
						c2.93-2.94,5.66-7.81,6.03-11.87c0.02-0.22-0.31-0.27-0.35-0.05c-0.6,3.68-2.99,8.5-5.89,11.2c-0.42-1.45-0.83-2.9-1.22-4.36
						c0.01-0.05,0.01-0.1,0-0.14c1.37-1.2,2.41-3.05,3.39-4.53c1.18-1.79,2.2-3.7,2.45-5.85c0.03-0.24-0.35-0.27-0.37-0.03
						c-0.27,3.53-3.11,7.14-5.7,9.64c-0.14-0.53-0.28-1.07-0.41-1.6c-0.2-0.8-0.39-1.61-0.58-2.41c0.86-1.46,2.26-2.62,3.1-4.13
						c0.73-1.31,1.24-2.72,1.73-4.14c0.05-0.14-0.16-0.23-0.22-0.09c-0.72,1.8-1.5,3.56-2.67,5.12c-0.65,0.87-1.52,1.6-2.13,2.5
						c-0.31-1.31-0.63-2.63-0.95-3.94c0.01-0.01,0.03-0.02,0.04-0.03c0.02,0,0.03-0.01,0.05-0.01c0.1-0.02,0.15-0.09,0.18-0.16
						c1.51-1.23,2.14-3.32,2.71-5.11c0.01-0.04-0.05-0.07-0.07-0.02c-0.69,1.68-1.49,3.56-2.88,4.79c-0.01,0-0.01,0-0.02,0
						c-0.04,0.01-0.09,0.03-0.13,0.04c-0.27-1.07-0.54-2.13-0.84-3.18c0.11-0.08,0.17-0.24,0.09-0.35c0.63-1.03,1.09-2.2,1.51-3.32
						c0.03-0.08-0.09-0.14-0.13-0.05c-0.48,1.07-1.01,2.01-1.68,2.94c-0.62-2.18-1.32-4.33-2.17-6.44c-0.08-0.2-0.37-0.06-0.3,0.13
						c0.74,2.07,1.37,4.16,1.94,6.27c-1.52-0.8-3.17-1.59-4.41-2.74c-0.06-0.06-0.17,0.02-0.1,0.09c0.69,0.75,1.54,1.3,2.39,1.86
						c0.76,0.5,1.49,1.16,2.33,1.52c0.3,1.14,0.58,2.28,0.85,3.42c-1.24,0.35-2.39,0.62-3.73,0.23c-1.64-0.48-2.94-1.56-3.77-3.04
						c-0.1-0.18-0.4-0.04-0.29,0.14c0.8,1.37,1.99,2.45,3.47,3.06c1.55,0.64,2.92,0.44,4.44,0.08c0.31,1.32,0.61,2.65,0.91,3.98
						c-1.34-0.14-2.69-0.51-3.98-0.82c-2.08-0.5-3.66-1.54-5.61-2.29c-0.2-0.08-0.32,0.22-0.12,0.3c1.85,0.74,3.35,1.77,5.3,2.3
						c1.41,0.38,3.02,0.92,4.52,0.99c0.02,0.07,0.03,0.14,0.05,0.21c-0.01,0.02-0.02,0.03-0.02,0.05c-0.05,0.13,0.01,0.23,0.1,0.28
						c0.28,1.27,0.57,2.54,0.86,3.81c0.02,0.08,0.04,0.16,0.06,0.24c-3.26,0.02-8.27-0.25-10.08-3.2c-0.17-0.28-0.58,0.01-0.37,0.28
						c2.44,3.16,7.05,2.92,10.61,3.6c0.34,1.43,0.71,2.85,1.1,4.27c-2.01,0.21-4.01,0.24-6.01-0.24c-1.82-0.44-4.28-0.84-5.64-2.19
						c-0.04-0.04-0.1,0.03-0.06,0.07c1.31,1.37,3.51,1.7,5.25,2.24c2.21,0.68,4.35,1.14,6.61,0.77c0.01,0.06,0.04,0.13,0.08,0.18
						c0.25,0.9,0.51,1.79,0.77,2.69c-3.38,1.27-9.1,0.92-11.92-0.78c-0.01-0.01-0.02,0.01-0.01,0.02c2.01,1.35,4.25,1.66,6.63,1.71
						c1.78,0.04,3.74,0.15,5.44-0.49c0.48,1.65,0.98,3.31,1.47,4.96c-1.66,0.13-3.28,0.58-4.94,0.67c-2.47,0.14-4.76-0.62-6.85-1.89
						c-0.13-0.08-0.27,0.1-0.14,0.19c3.93,2.54,7.68,2.08,12.11,1.65c0.4,1.36,0.79,2.72,1.17,4.08c-3.4,0.85-8.31,0.83-11.15-1.15
						c-0.21-0.15-0.45,0.17-0.24,0.31c1.8,1.27,4.03,1.57,6.2,1.64c1.56,0.05,3.79,0.3,5.34-0.29c0.01,0.04,0.03,0.09,0.04,0.13
						c0.54,1.96,1.02,3.94,1.47,5.93c-3.89,0.75-7.34-0.79-11-2.02c-0.25-0.09-0.41,0.3-0.15,0.39c3.76,1.34,7.27,2.95,11.29,2.22
						c0.36,1.62,0.7,3.24,1.03,4.87c-3.35,0.55-7.27-0.19-10.31-1.71c-0.22-0.11-0.35,0.24-0.14,0.35c3.22,1.7,7.01,2.34,10.58,2
						c0.35,1.75,0.68,3.5,1,5.25c-3.26,0.95-6.5,0.14-9.5-1.4c-0.07-0.04-0.13,0.08-0.06,0.12c2.75,1.54,6.52,3.05,9.68,1.92
						c0.1,0.56,0.21,1.12,0.31,1.68c0.06,0.34,0.12,0.68,0.18,1.03c-2.61,0.39-5.13,0.56-7.75-0.1c-0.07-0.02-0.1,0.09-0.02,0.11
						c2.56,0.78,5.22,0.87,7.86,0.51c0.18,1.06,0.36,2.15,0.55,3.26c-0.69,0-1.38-0.03-2.09,0.07c-1.3,0.19-2.38-0.19-3.65-0.33
						c-0.12-0.01-0.16,0.16-0.04,0.18c1.14,0.16,2.09,0.61,3.27,0.52c0.87-0.07,1.73-0.04,2.59-0.05c0.77,4.39,1.78,8.97,4.02,12.49
						c0.5,0.78,2,0.35,1.8-0.63C380.2,440.1,378.82,437.21,377.84,434.29z"/>
				</g>
				<g>
					<path class="st8" d="M402.48,393.72c0.54,12.17,6.23,31.68-8.28,38.67c-3.91,1.88-8.61,0.03-11.83-2.64
						c-4.22-3.49-7.26-12.36-8.51-17.56c-0.99-4.12-0.75-9.06-1.35-13.31c-0.64-4.6-1.38-9.19-1.99-13.79
						c-2.19-16.6,2.82-32.24,15.03-43.89c2.44,5.01,6.09,8.86,9.59,13.38c1.6,2.06,3.12,4.27,4.4,6.54
						c2.25,4.01,1.94,8.71,1.93,13.09C401.46,380.68,402.19,387.24,402.48,393.72z"/>
					<path class="st6" d="M391.71,433.43c-0.14-1-0.26-2-0.38-3c1.83-0.47,3.47-1.99,4.8-3.17c2.31-2.05,3.97-4.57,5.53-7.22
						c0.08-0.14-0.15-0.28-0.25-0.15c-1.64,2.28-3.37,4.52-5.56,6.3c-1.22,0.99-2.98,2.56-4.63,3.19c-0.13-1.2-0.25-2.4-0.35-3.6
						c1.84-0.71,3.27-2.4,4.64-3.77c2.33-2.32,4.15-5.02,6.08-7.66c0.02-0.03-0.02-0.06-0.05-0.04c-3.05,3.66-6.24,8.57-10.75,10.61
						c-0.12-1.51-0.21-3.02-0.27-4.52c0-0.08-0.01-0.16-0.01-0.24c5.12-2.77,7.73-7.99,11.05-12.51c0.05-0.07-0.05-0.17-0.11-0.1
						c-3.31,4.24-6.27,8.88-10.97,11.72c-0.08-2.16-0.13-4.32-0.18-6.47c4.49-3.08,7.71-6.97,10.14-11.88
						c0.04-0.08-0.08-0.15-0.12-0.07c-2.64,4.63-6.04,7.77-10.04,11.03c-0.05-2.13-0.11-4.27-0.19-6.4c1.87-1.59,3.96-2.8,5.59-4.69
						c1.61-1.86,2.94-3.93,3.69-6.28c0.04-0.12-0.15-0.18-0.19-0.06c-1.76,4.68-5.62,6.97-9.13,10.09c-0.08-1.99-0.2-3.97-0.35-5.96
						c3.87-3.61,8.17-7.14,9.52-12.53c0.01-0.05-0.06-0.08-0.08-0.03c-1.6,5.04-5.84,8.11-9.52,11.56
						c-0.03-0.35-0.05-0.71-0.09-1.06c-0.17-1.83-0.36-3.67-0.55-5.5c2.32-1.69,4.41-3.77,6.36-5.87c1.38-1.49,2.87-3,3.53-4.96
						c0.04-0.12-0.14-0.19-0.19-0.07c-1.54,4.06-6.31,7.39-9.78,10.11c-0.2-1.85-0.4-3.7-0.59-5.55c3.67-3.71,8.39-6.45,9.86-11.84
						c0.04-0.16-0.19-0.24-0.25-0.08c-1.67,5.01-6.19,7.56-9.71,11.05c-0.12-1.15-0.24-2.29-0.35-3.44
						c4.24-2.9,8.68-8.18,10.08-13.03c0.08-0.27-0.31-0.4-0.41-0.14c-1.58,4.34-5.61,9.65-9.76,12.25
						c-0.18-1.86-0.34-3.72-0.47-5.59c0.02-0.06,0.03-0.12,0.03-0.18c1.94-1.15,3.64-3.15,5.17-4.73c1.84-1.9,3.53-3.99,4.33-6.55
						c0.09-0.28-0.37-0.41-0.44-0.12c-1.14,4.23-5.44,7.96-9.16,10.4c-0.04-0.68-0.09-1.36-0.13-2.04c-0.05-1.02-0.1-2.04-0.15-3.06
						c1.38-1.57,3.36-2.66,4.73-4.3c1.19-1.43,2.14-3.02,3.06-4.63c0.09-0.16-0.14-0.31-0.24-0.15c-1.29,2.02-2.64,3.98-4.43,5.61
						c-1,0.91-2.22,1.59-3.16,2.55c-0.07-1.67-0.15-3.34-0.24-5.01c0.02-0.01,0.04-0.02,0.06-0.03c0.02,0,0.04,0,0.06,0
						c0.12-0.01,0.2-0.07,0.25-0.15c2.13-1.15,3.37-3.54,4.47-5.59c0.03-0.05-0.04-0.09-0.07-0.04c-1.23,1.89-2.63,3.98-4.62,5.16
						c-0.01,0-0.02,0-0.03,0c-0.06,0.01-0.11,0.01-0.17,0.02c-0.08-1.36-0.17-2.71-0.28-4.07c0.16-0.07,0.26-0.25,0.18-0.4
						c1-1.11,1.83-2.42,2.6-3.69c0.06-0.1-0.08-0.19-0.14-0.09c-0.83,1.19-1.7,2.21-2.73,3.18c-0.25-2.79-0.61-5.57-1.15-8.33
						c-0.05-0.26-0.43-0.16-0.39,0.09c0.42,2.68,0.7,5.38,0.9,8.08c-1.67-1.33-3.49-2.67-4.73-4.35c-0.06-0.09-0.21-0.01-0.15,0.09
						c0.67,1.07,1.57,1.93,2.48,2.81c0.81,0.78,1.54,1.75,2.48,2.39c0.1,1.45,0.18,2.9,0.24,4.36c-1.58,0.14-3.05,0.2-4.59-0.58
						c-1.88-0.96-3.22-2.57-3.89-4.57c-0.08-0.25-0.48-0.14-0.39,0.1c0.65,1.85,1.85,3.44,3.51,4.52c1.74,1.14,3.45,1.21,5.38,1.13
						c0.07,1.68,0.13,3.36,0.18,5.04c-1.59-0.48-3.15-1.24-4.65-1.92c-2.42-1.1-4.09-2.72-6.29-4.09c-0.22-0.14-0.44,0.2-0.22,0.34
						c2.08,1.33,3.66,2.93,5.92,4.02c1.62,0.79,3.46,1.82,5.27,2.25c0,0.09,0.01,0.18,0.01,0.27c-0.01,0.02-0.03,0.04-0.04,0.06
						c-0.09,0.15-0.04,0.28,0.05,0.37c0.05,1.61,0.1,3.22,0.16,4.83c0,0.1,0.01,0.2,0.02,0.3c-3.97-0.73-10-2.22-11.52-6.22
						c-0.14-0.38-0.7-0.12-0.51,0.25c2.23,4.41,7.89,5.18,12.07,6.83c0.09,1.82,0.21,3.63,0.35,5.45c-2.5-0.21-4.93-0.64-7.25-1.68
						c-2.11-0.95-5.02-2.01-6.35-3.97c-0.04-0.06-0.13,0.01-0.09,0.07c1.28,1.96,3.88,2.88,5.87,3.94c2.53,1.34,5.03,2.39,7.86,2.47
						c0,0.08,0.01,0.16,0.05,0.23c0.1,1.15,0.2,2.3,0.31,3.44c-4.41,0.76-11.28-0.99-14.31-3.7c-0.01-0.01-0.03,0.01-0.02,0.02
						c2.14,2.11,4.78,3,7.67,3.61c2.16,0.46,4.51,1.05,6.72,0.67c0.21,2.12,0.42,4.25,0.64,6.37c-2.05-0.22-4.12-0.06-6.16-0.33
						c-3.04-0.41-5.64-1.86-7.88-3.89c-0.14-0.12-0.35,0.06-0.21,0.19c4.19,4,8.85,4.31,14.34,4.82c0.17,1.74,0.33,3.49,0.48,5.23
						c-4.33,0.25-10.3-0.92-13.29-3.97c-0.22-0.22-0.58,0.1-0.36,0.33c1.9,1.96,4.54,2.84,7.15,3.43c1.88,0.42,4.53,1.24,6.56,0.88
						c0,0.06,0.01,0.11,0.01,0.17c0.2,2.51,0.33,5.03,0.42,7.55c-4.9,0.01-8.74-2.66-12.9-5.01c-0.29-0.16-0.57,0.27-0.28,0.44
						c4.26,2.5,8.15,5.26,13.21,5.31c0.07,2.05,0.1,4.11,0.12,6.16c-4.2-0.11-8.79-1.91-12.14-4.47c-0.24-0.18-0.48,0.21-0.25,0.39
						c3.52,2.81,7.98,4.46,12.4,4.88c0.02,2.2,0.01,4.41,0,6.61c-4.19,0.41-7.93-1.33-11.22-3.9c-0.08-0.06-0.18,0.07-0.11,0.13
						c2.98,2.51,7.22,5.21,11.33,4.57c0,0.7-0.01,1.41-0.01,2.11c0,0.42-0.01,0.86-0.01,1.29c-3.27-0.13-6.37-0.51-9.39-1.92
						c-0.08-0.04-0.14,0.09-0.06,0.13c2.93,1.54,6.15,2.27,9.44,2.44c-0.02,1.33-0.06,2.7-0.08,4.09c-0.84-0.16-1.67-0.36-2.56-0.4
						c-1.63-0.07-2.85-0.78-4.37-1.24c-0.14-0.04-0.23,0.16-0.09,0.21c1.35,0.46,2.4,1.23,3.85,1.39c1.07,0.12,2.11,0.36,3.16,0.54
						c-0.08,5.52,0.08,11.32,2,16.11c0.43,1.06,2.34,0.89,2.33-0.35C393.24,441.04,392.23,437.21,391.71,433.43z"/>
				</g>
				<polygon class="st30" points="410.49,437.99 409.95,447.88 409.11,463.28 407.73,488.58 373.47,488.58 372.1,463.28 
					371.26,447.88 370.72,437.99 				"/>
				<polygon class="st31" points="409.95,447.88 409.84,449.86 409.73,451.92 409.11,463.28 372.1,463.28 371.48,451.92 
					371.37,449.86 371.26,447.88 				"/>
				<polygon class="st30" points="409.84,449.86 409.73,451.92 371.48,451.92 371.37,449.86 				"/>
			</g>
		</g>
	</g>
</g>
<g id="Designed_By_Freepik" class="st0">
</g>
</svg>
