<?xml version="1.0" encoding="utf-8"?>
<!-- Generator: Adobe Illustrator 24.1.0, SVG Export Plug-In . SVG Version: 6.00 Build 0)  -->
<svg version="1.1" xmlns="http://www.w3.org/2000/svg" xmlns:xlink="http://www.w3.org/1999/xlink" x="0px" y="0px"
	 viewBox="0 0 500 500" style="enable-background:new 0 0 500 500;" xml:space="preserve">
<style type="text/css">
	.st0{fill:#13084A;}
	.st1{opacity:0.46;}
	.st2{fill:#FFFFFF;}
	.st3{fill:#0097FF;}
	.st4{fill:#EDEDF9;}
	.st5{fill:#DCDCEF;}
	.st6{fill:#06005A;}
	.st7{opacity:0.43;fill:#FFFFFF;}
	.st8{fill:#000033;}
	.st9{fill:#20F6FF;}
	.st10{fill:#20839E;}
	.st11{fill:#FF948C;}
	.st12{fill:#EF7E7B;}
	.st13{opacity:0.51;fill:#F96662;}
	.st14{fill:#F96662;}
	.st15{fill:#00001E;}
	.st16{fill:#080866;}
	.st17{fill:#ECEBF2;}
	.st18{fill:#006FC8;}
</style>
<g id="BACKGROUND">
</g>
<g id="OBJECTS">
	<g>
		<g>
			<g>
				<g>
					<path class="st0" d="M2.31,481.61c3.81,0,7.62,0,11.43,0c10.28,0,20.55,0,30.83,0c15.24,0,30.47,0,45.71,0
						c18.59,0,37.18,0,55.77,0c20.29,0,40.58,0,60.87,0c20.62,0,41.24,0,61.86,0c19.09,0,38.19,0,57.28,0c16.19,0,32.39,0,48.58,0
						c11.64,0,23.29,0,34.93,0c5.5,0,11.01,0.11,16.51,0c0.24,0,0.48,0,0.72,0c1.68,0,1.68-3.09,0-3.09c-3.81,0-7.62,0-11.43,0
						c-10.28,0-20.55,0-30.83,0c-15.24,0-30.47,0-45.71,0c-18.59,0-37.18,0-55.77,0c-20.29,0-40.58,0-60.87,0
						c-20.62,0-41.24,0-61.86,0c-19.09,0-38.19,0-57.28,0c-16.19,0-32.39,0-48.58,0c-11.64,0-23.29,0-34.93,0
						c-5.5,0-11.01-0.11-16.51,0c-0.24,0.01-0.48,0-0.72,0C0.64,478.52,0.63,481.61,2.31,481.61L2.31,481.61z"/>
				</g>
				<g>
					<path class="st0" d="M451.96,481.61c3.75,0,7.51,0,11.26,0c5.98,0,11.95,0,17.93,0c1.36,0,2.73,0,4.09,0
						c1.44,0,1.45-3.09,0-3.09c-3.75,0-7.51,0-11.26,0c-5.98,0-11.95,0-17.93,0c-1.36,0-2.73,0-4.09,0
						C450.51,478.52,450.51,481.61,451.96,481.61L451.96,481.61z"/>
				</g>
			</g>
			<g class="st1">
				<path class="st2" d="M274.8,81.62c2.02,0,2.03-3.14,0-3.14C272.78,78.48,272.77,81.62,274.8,81.62L274.8,81.62z"/>
			</g>
			<g>
				<g>
					<g>
						<g>
							<path class="st3" d="M130.37,474.36c-9.62,0-17.42-7.8-17.42-17.42l0,0c0-9.62,7.8-17.42,17.42-17.42H344.9
								c1.24,0,2.25-1.01,2.25-2.25v-0.07c0-1.19-0.97-2.16-2.16-2.16H127.27c-12.29,0-22.24,9.96-22.24,22.24l0,0
								c0,12.29,9.96,22.24,22.24,22.24h217.27c1.44,0,2.62-1.17,2.62-2.62v-0.13c0-1.34-1.09-2.43-2.43-2.43H130.37z"/>
							<path class="st4" d="M112.96,456.94L112.96,456.94c0,9.62,7.72,17.42,17.25,17.42h214.65l-0.31-1.2
								c-2.74-10.64-2.74-21.79,0-32.43l0.31-1.2H130.2C120.68,439.52,112.96,447.32,112.96,456.94z"/>
							<path class="st5" d="M118.01,460.39L118.01,460.39c0-9.62,7.72-17.42,17.25-17.42h208.78c0.16-0.75,0.31-1.5,0.5-2.25
								l0.31-1.2H130.2c-9.52,0-17.25,7.8-17.25,17.42l0,0c0,7.12,4.23,13.23,10.29,15.93C120.02,469.7,118.01,465.29,118.01,460.39
								z"/>
							<g>
								<rect x="177.93" y="452.79" class="st5" width="93.81" height="1.28"/>
							</g>
							<g>
								<rect x="236.89" y="465.03" class="st5" width="93.81" height="1.28"/>
							</g>
							<polygon class="st6" points="212.15,453.59 212.15,473.58 221.24,466.17 230.18,473.33 229.14,453.52 							"/>
						</g>
						<g>
							<path class="st6" d="M364.32,435.04H145.51c-5.19,0-9.4-4.21-9.4-9.4v-14.05c0-5.19,4.21-9.4,9.4-9.4h218.81
								c5.19,0,9.4,4.21,9.4,9.4v14.05C373.73,430.83,369.52,435.04,364.32,435.04z"/>
							<rect x="337.05" y="402.18" class="st7" width="3.91" height="32.86"/>
							<rect x="319.75" y="402.18" class="st7" width="3.91" height="32.86"/>
							<path class="st8" d="M136.11,411.36v4.67l186.06-13.85H147.36C141.14,402.18,136.11,407.97,136.11,411.36z"/>
							<rect x="164.62" y="402.18" class="st7" width="3.91" height="32.86"/>
							<rect x="181.17" y="402.18" class="st7" width="3.91" height="32.86"/>
						</g>
						<g>
							<path class="st4" d="M148.89,379.59L148.89,379.59c0,9.62,7.2,17.42,16.07,17.42h200.06l-0.29-1.2
								c-2.55-10.64-2.55-21.79,0-32.43l0.29-1.2H164.96C156.08,362.18,148.89,369.98,148.89,379.59z"/>
							<g>
								<path class="st3" d="M165.12,397.01c-8.97,0-16.23-7.8-16.23-17.42l0,0c0-9.62,7.27-17.42,16.23-17.42h199.95
									c1.16,0,2.1-1.01,2.1-2.25v-0.07c0-1.19-0.9-2.16-2.01-2.16H162.23c-11.45,0-20.73,9.96-20.73,22.24l0,0
									c0,12.29,9.28,22.24,20.73,22.24h202.5c1.35,0,2.44-1.17,2.44-2.62v-0.13c0-1.34-1.01-2.43-2.27-2.43H165.12z"/>
								<path class="st5" d="M153.6,383.04L153.6,383.04c0-9.62,7.2-17.42,16.07-17.42h194.59c0.15-0.75,0.29-1.5,0.47-2.25
									l0.29-1.2H164.96c-8.88,0-16.07,7.8-16.07,17.42v0c0,7.12,3.94,13.23,9.59,15.93C155.47,392.36,153.6,387.94,153.6,383.04z"
									/>
								<g>
									<g>
										<rect x="179.18" y="375.49" class="st5" width="93.81" height="1.28"/>
									</g>
									<g>
										<rect x="238.14" y="387.72" class="st5" width="93.81" height="1.28"/>
									</g>
								</g>
							</g>
						</g>
						<g>
							<path class="st9" d="M318.27,264.73c8.37,0,15.15-6.78,15.15-15.15l0,0c0-8.37-6.78-15.15-15.15-15.15h-186.6
								c-1.08,0-1.96-0.88-1.96-1.96v-0.06c0-1.04,0.84-1.88,1.88-1.88h189.38c10.69,0,19.35,8.66,19.35,19.35l0,0
								c0,10.69-8.66,19.35-19.35,19.35H131.99c-1.26,0-2.27-1.02-2.27-2.27v-0.11c0-1.17,0.95-2.12,2.12-2.12H318.27z"/>
							<path class="st4" d="M333.42,249.58L333.42,249.58c0,8.37-6.72,15.15-15,15.15H131.72l0.27-1.04
								c2.38-9.25,2.38-18.96,0-28.21l-0.27-1.04h186.71C326.71,234.43,333.42,241.22,333.42,249.58z"/>
							<path class="st5" d="M329.02,252.58L329.02,252.58c0-8.37-6.72-15.15-15-15.15h-181.6c-0.14-0.65-0.27-1.31-0.44-1.96
								l-0.27-1.04h186.71c8.28,0,15,6.78,15,15.15l0,0c0,6.19-3.68,11.51-8.95,13.86C327.28,260.69,329.02,256.84,329.02,252.58z"
								/>
							<g>
								<rect x="195.31" y="245.98" class="st5" width="81.6" height="1.11"/>
							</g>
							<g>
								<rect x="218.13" y="256.06" class="st5" width="81.6" height="1.11"/>
							</g>
						</g>
						<g>
							<path class="st9" d="M352.2,357.62H133.39c-5.19,0-9.4-4.21-9.4-9.4v-24.98c0-5.19,4.21-9.4,9.4-9.4H352.2
								c5.19,0,9.4,4.21,9.4,9.4v24.98C361.61,353.41,357.4,357.62,352.2,357.62z"/>
							<rect x="324.94" y="313.83" class="st7" width="3.91" height="43.79"/>
							<rect x="307.64" y="313.83" class="st7" width="3.91" height="43.79"/>
							<path class="st10" d="M123.99,325.09v7.2l186.06-18.45H135.24C129.03,313.83,123.99,318.87,123.99,325.09z"/>
							<rect x="152.5" y="313.83" class="st7" width="3.91" height="43.79"/>
							<rect x="169.05" y="313.83" class="st7" width="3.91" height="43.79"/>
						</g>
						<g>
							<path class="st3" d="M132.86,308.55c-7.84,0-14.2-7.8-14.2-17.42v0c0-9.62,6.36-17.42,14.2-17.42h174.89
								c1.01,0,1.84-1.01,1.84-2.25v-0.07c0-1.19-0.79-2.16-1.76-2.16h-177.5c-10.02,0-18.13,9.96-18.13,22.24l0,0
								c0,12.29,8.12,22.24,18.13,22.24h177.13c1.18,0,2.13-1.17,2.13-2.62v-0.13c0-1.34-0.89-2.43-1.98-2.43H132.86z"/>
							<path class="st4" d="M118.66,291.13L118.66,291.13c0,9.62,6.29,17.42,14.06,17.42h174.99l-0.25-1.2
								c-2.23-10.64-2.23-21.79,0-32.43l0.25-1.2H132.72C124.96,273.72,118.66,281.51,118.66,291.13z"/>
							<path class="st5" d="M122.79,294.58L122.79,294.58c0-9.62,6.29-17.42,14.06-17.42h170.21c0.13-0.75,0.25-1.5,0.41-2.25
								l0.25-1.2H132.72c-7.76,0-14.06,7.8-14.06,17.42v0c0,7.12,3.45,13.23,8.39,15.93C124.43,303.9,122.79,299.48,122.79,294.58z"
								/>
							<g>
								<rect x="171.63" y="286.99" class="st5" width="76.48" height="1.28"/>
							</g>
							<g>
								<rect x="219.7" y="299.22" class="st5" width="76.48" height="1.28"/>
							</g>
							<polygon class="st6" points="240.76,299.93 240.76,319.93 248.17,312.51 255.46,319.67 254.61,299.86 							"/>
						</g>
					</g>
				</g>
				<g>
					<g>
						<g>
							<g>
								<path class="st11" d="M283.99,58c-1.5,7.99-5.82,15.41-12.02,20.66c-0.22,0.18-0.45,0.39-0.49,0.67
									c-0.04,0.28,0.13,0.54,0.31,0.76c0.75,0.86,1.88,1.27,2.96,1.61c4.1,1.27,8.39,1.92,12.68,1.93c0.8,0,1.67-0.04,2.28-0.57
									c0.44-0.38,0.66-0.95,0.86-1.5c1.6-4.4,2.91-8.9,3.92-13.47c0.05-0.21,0.09-0.42,0.05-0.63c-0.08-0.41-0.48-0.67-0.83-0.9
									c-2.66-1.68-5.04-3.81-7-6.27"/>
							</g>
							<g>
								<path class="st12" d="M294.53,67.46c-0.08-0.41-0.48-0.67-0.83-0.9c-2.66-1.68-5.04-3.81-7-6.27L283.99,58
									c-0.13,0.71-0.32,1.42-0.49,2.12c0.26,0.69,0.43,1.46,0.46,2.31c0.13,3.2,3.41,6.54,4.64,9.5
									c1.64,3.95,1.65,7.75,0.38,11.51c0.27-0.08,0.52-0.2,0.74-0.38c0.44-0.38,0.66-0.95,0.86-1.5c1.6-4.4,2.91-8.9,3.92-13.47
									C294.53,67.88,294.58,67.67,294.53,67.46z"/>
							</g>
						</g>
						<g>
							<g>
								<path class="st6" d="M316.35,79.39c-1.57-3.4-1.74-7.42-0.48-10.94c0.66-1.85,1.71-3.59,2.02-5.53
									c0.45-2.84-0.75-5.68-2.14-8.2c-1.39-2.52-3.03-4.99-3.58-7.81c-0.73-3.74,0.69-7.82,3.59-10.29l3.31,1.74
									c-1.38,4.04-1.04,8.63,0.92,12.42c1.07,2.06,2.6,3.92,3.17,6.18c0.96,3.81-1.03,7.69-3.04,11.07
									c-2.01,3.38-4.19,7.08-3.6,10.97"/>
							</g>
							<g>
								<path class="st11" d="M302.25,17.99c4.75,0.44,9.27,2.97,12.15,6.77c2.88,3.81,4.06,8.84,3.19,13.54
									c-0.44,2.36-1.37,4.62-1.73,7c-0.36,2.38-0.04,5.05,1.67,6.75c0.64,0.64,1.18,1.09,1.76,1.79c0.59,0.69,0.95,1.25,0.43,1.99
									c-0.68,0.98-2,1.29-2.96,1.99c-0.53,0.38-0.83,1.01-1.12,1.6c-2.47,5.07-5.6,9.82-9.29,14.09c-0.2,0.23-0.41,0.47-0.7,0.57
									c-0.43,0.16-0.91-0.02-1.34-0.2c-4.75-2-9.53-4.02-13.8-6.89c-4.28-2.87-8.07-6.68-10.1-11.41
									c-1.91-4.46-2.14-9.62-0.63-14.22"/>
							</g>
							<g>
								<path class="st6" d="M314.47,47.16c0,0.75-0.43,1.35-0.95,1.35c-0.53,0-0.95-0.61-0.95-1.35c0-0.75,0.43-1.35,0.95-1.35
									C314.05,45.8,314.47,46.41,314.47,47.16z"/>
								<path class="st13" d="M311.98,55.51c0,2.19-1.78,3.97-3.97,3.97c-2.19,0-3.97-1.78-3.97-3.97c0-2.19,1.78-3.97,3.97-3.97
									C310.2,51.54,311.98,53.31,311.98,55.51z"/>
								<path class="st14" d="M314.04,62.18l-4.7-0.97c0,0,2.1,2.23,3.23,2.55C313.71,64.07,314.04,62.18,314.04,62.18z"/>
							</g>
							<g>
								<g>
									<path class="st6" d="M275.59,26.74c-6.67,1.49-12.44-0.18-14.77-1.18c-2.34-1-4.47-2.65-5.61-4.93
										c-1.13-2.26-1.19-4.93-0.66-7.4c1.46-6.82,7.6-12.37,14.53-13.14c3.98-0.44,8.2,0.65,11.21,3.3
										c3.01,2.65,4.65,6.9,3.81,10.82"/>
								</g>
								<g>
									<path class="st6" d="M320.11,21.53c-2.59-3.27-10.9-10.72-22.38-11.01c-6.83-0.42-12.26,0.28-16.97,3.14
										c-4.7,2.86-7.27,6.98-10.07,11.72c-3.35,5.66-5.47,9.36-5.24,15.94c0.23,6.57,3.22,12.59,8.37,16.68
										c1.38,1.1,4.98,3.99,6.73,4.19c2.18,0.25,2.15,0.74,3.77-0.74c1.62-1.47,2.73-3.44,3.55-5.48c0.9-2.24,1.71-4.86,3.9-5.89
										c1.8-0.84,3.76-0.26,5.74,0.26c-0.01,0.48-0.02,0.96,0.03,1.43c0.31,3.47,1.98,6.65,3.34,9.86
										c1.36,3.21,2.46,6.78,1.56,10.15c-0.61,2.3-2.09,4.26-3.12,6.41c-1.96,4.09-2.26,8.95-0.79,13.25l0.24-0.47
										c-0.22-4.76,2.86-8.95,5.71-12.77c2.84-3.82,5.73-8.24,5.05-12.96c-0.4-2.78-2.02-5.22-3.04-7.84
										c-0.96-2.44-1.38-5.08-1.29-7.71c0.32-0.15,0.63-0.31,0.94-0.47c5.28-2.72,10.52-6.03,13.74-11.02
										C323.1,33.23,323.79,26.19,320.11,21.53z"/>
								</g>
								<g>
									<path class="st9" d="M269.27,30.06c0,0-2.03,0,1.41-4.68c3.44-4.68,12.81-14.04,12.81-14.04s1.53-0.92-1.18,4.93
										S273.29,27.54,269.27,30.06z"/>
									<path class="st9" d="M283.92,11.52c0,0,1.3-0.6,3.27,2.14c1.97,2.74,4.52,9.07,4.52,9.07s0.24,1.01-2.51-1.54
										C286.46,18.65,284.6,14.19,283.92,11.52z"/>
									<path class="st9" d="M283.92,11.88c0,0,0.03-1.24,2.69-2.27c2.66-1.03,8.11-1.73,8.11-1.73s0.83,0.02-1.92,1.73
										S286.13,11.9,283.92,11.88z"/>
									<path class="st9" d="M285.81,11.78c0,1.04-0.85,1.89-1.89,1.89c-1.04,0-1.89-0.85-1.89-1.89s0.85-1.89,1.89-1.89
										C284.96,9.89,285.81,10.73,285.81,11.78z"/>
								</g>
							</g>
							<g>
								<g>
									<path class="st11" d="M294.65,49.87c0.78,1.87,0.82,6.57-1.15,7.03c-1.29,0.3-2.68-0.17-3.71-1.02
										c-1.03-0.84-1.73-2.01-2.27-3.22c-0.69-1.55-1.15-3.29-0.73-4.94c0.41-1.65,1.91-3.1,3.6-3.01
										c1.19,0.07,2.24,0.87,2.91,1.86C293.96,47.56,294.31,48.73,294.65,49.87"/>
								</g>
								<g>
									<path class="st12" d="M294.1,54.38c-5.04,0-7.19-4.46-6.48-8.29c-0.39,0.48-0.68,1.04-0.83,1.64
										c-0.41,1.65,0.04,3.39,0.73,4.94c0.54,1.21,1.25,2.38,2.27,3.22c1.03,0.84,2.41,1.32,3.71,1.02
										c0.89-0.21,1.37-1.29,1.55-2.58C294.75,54.35,294.43,54.38,294.1,54.38z"/>
								</g>
							</g>
						</g>
					</g>
					<g>
						<g>
							<path class="st11" d="M363.73,295.24c0.78,6.96,2.37,14.44-3.81,25.29c-0.69,1.21-1.71,2.31-1.84,3.69
								c-0.24,2.48,2.11,4.48,4.47,5.28c2.36,0.8,4.96,0.89,7.18,2.03c2.67,1.37,4.38,4.04,6.51,6.16c2.82,2.81,6.53,4.73,10.46,5.4
								c0.45,0.08,1.06,0.06,1.21-0.38c0.07-0.21,0-0.43-0.08-0.64c-1-2.51-3.58-3.95-5.29-6.04c-1.67-2.05-2.46-4.67-3.75-6.98
								c-1.05-1.89-2.78-5.44-3.61-7.44c-1.33-3.23-0.77-6.68-0.03-10.09c0.74-3.41,2.43-11.63,3.76-15.21"/>
						</g>
						<g>
							<path class="st15" d="M279.08,185.5c19.21-6.33,39.55-9.2,59.75-8.43c15,0.57,31.28,3.87,40.83,15.45
								c6.88,8.34,7.63,12.32,8.27,23.11c0.58,9.8-0.72,26.17-1.57,35.95c-1.46,16.62-1.82,33.87-5.55,50.13
								c-0.12,0.54-0.26,1.11-0.64,1.51c-0.39,0.42-0.97,0.6-1.52,0.75c-4.62,1.22-9.52,1.36-14.2,0.41
								c-0.67-0.14-1.39-0.32-1.86-0.82c-0.5-0.53-0.63-1.3-0.73-2.03c-1.53-11.52-2.82-29.44-3.81-41.02
								c-0.79-9.33-0.65-12.34-3.72-21.19c-0.82-2.37-1.76-4.78-3.49-6.59c-3.52-3.7-9.26-3.99-14.36-3.73
								c-17.27,0.9-34.73,5.31-51.65,1.74"/>
						</g>
						<g>
							<path class="st11" d="M341.44,228.69c-1.15,6.9-4.88,13.35-10.3,17.78c-1.08,0.88-2.27,1.75-2.78,3.05
								c-0.91,2.32,0.81,4.89,2.86,6.3c2.06,1.41,4.53,2.21,6.35,3.91c2.19,2.05,3.11,5.08,4.58,7.71c1.95,3.48,4.99,6.33,8.59,8.05
								c0.42,0.2,1,0.34,1.27-0.04c0.12-0.18,0.12-0.42,0.1-0.63c-0.28-2.68-2.37-4.78-3.44-7.26c-1.05-2.43-1.09-5.17-1.7-7.74
								c-0.5-2.11-1.19-5.99-1.44-8.14c-0.4-3.47,0.72-5.04,2.36-8.12c1.64-3.08,6.03-8.46,8.28-11.54"/>
						</g>
						<g>
							<path class="st16" d="M242.63,196.66c-0.83,8.13-1.07,17.53,3.79,24.27c7.13,9.89,21.44,11.69,33.61,12.3
								c12.18,0.61,24.37-0.47,34.91-6.59c10.54-6.12,19.69-14.36,28.34-22.96c12.59-12.5,24.29-25.87,35.67-39.49
								c-18.5,18.22-35.94,39.1-42.12,64.32c-0.13,0.52-0.25,1.07-0.08,1.58c0.23,0.71,0.95,1.13,1.61,1.49
								c5.15,2.78,10.3,5.57,15.44,8.35c0.71,0.38,1.48,0.78,2.27,0.68c0.96-0.12,1.69-0.91,2.31-1.65
								c8.33-9.91,15.77-20.53,22.96-31.29c10.42-15.59,20.65-32.39,21.91-51.1c0.32-4.76-0.12-10-3.37-13.5
								c-3.59-3.88-9.44-4.46-14.73-4.42c-21.57,0.18-44.79,13.79-64.07,23.47c-19.28,9.68-41.72,35.5-55.46,6.46"/>
						</g>
					</g>
					<g>
						<path class="st9" d="M400.08,104.48l26.7-34.54c0.7-0.9,2.14-0.48,2.24,0.66l2.18,25.86l-16.36,25.63L400.08,104.48z"/>
						<polygon class="st17" points="387.48,111.35 424.39,68.75 430.3,95.86 430.3,95.86 						"/>
						<polygon class="st2" points="383.37,111.35 402.52,76.5 431.19,96.47 						"/>
						<path class="st9" d="M366.28,126.68c4.84-7.83,21.46-34.15,26.03-41.39c0.69-1.09,2.04-1.56,3.25-1.14l35.62,12.32
							l-26.64,41.76c-0.39,0.62-1.15,0.91-1.85,0.72l-35.27-9.42C366.18,129.2,365.61,127.77,366.28,126.68z"/>
						<path class="st10" d="M430.39,96.19c-0.39,1.51-1.36,2.91-3.09,3.93c-4.65,2.74-7.93,7.79-12.19,11.17
							c-4.38,3.46-9.1,6.73-14.03,9.37c-9.95,5.34-22.54,8.22-33.77,8.83c0.04,0.01,0.07,0.03,0.11,0.04l35.27,9.42
							c0.71,0.19,1.46-0.1,1.85-0.72l26.64-41.76L430.39,96.19z"/>
					</g>
					<g>
						<g>
							<path class="st3" d="M276.46,73.68c-13.23,8.23-22.31,22.04-27.31,36.8c-5.01,14.76-6.28,30.51-6.61,46.08
								c-0.34,15.58,0.21,31.2-1.32,46.71c-0.11,1.07,0.01,2.48,1.05,2.75c0.69,0.17,1.36-0.32,1.91-0.77
								c15.59-12.79,35.76-18.28,53.6-27.67c1.05-0.55,2.14-1.16,2.78-2.17c0.4-0.64,0.59-1.38,0.77-2.11
								c0.69-2.83,1.39-5.65,2.08-8.48c3.04-12.39,6.1-24.88,6.57-37.62c0.48-12.75-2.4-22.72-9.31-33.44
								c-1.31-2.03-6.12-10.62-7.84-12.3C288.43,77.15,283.01,79.91,276.46,73.68"/>
						</g>
						<g>
							<g>
								<path class="st18" d="M303.53,94.5c-1.03,2.31-3.16,4.07-6.05,3.89c-10.66-0.64-22.11-0.66-32.8-2.28
									c-1.11,12.37,1.19,25.39,8.18,35.8c7.83,11.66,20.07,19.03,32.42,25.08c2.32-9.83,4.31-19.74,4.69-29.81
									C310.39,115.97,308.66,104.42,303.53,94.5z"/>
							</g>
							<g>
								<g>
									<path class="st11" d="M386.03,129.16c2,1.13,4.62,0.09,6.22-1.57c1.6-1.65,2.69-3.42,4.11-5.24
										c1.71-2.19,5.3-3.83,8.71-6.16c0.41-0.28,0.95,0.08,0.82,0.56c-0.56,2.04-3.63,5.35-4.14,7.25
										c-0.06,0.22-0.11,0.48,0.04,0.65c0.14,0.16,0.39,0.17,0.6,0.14c3.81-0.38,6.68-3.62,10.26-4.99c0.52-0.2,1.1-0.36,1.64-0.2
										c1.16,0.36,0.29,2.7,0.01,3.88c-0.59,2.43-2.53,5.14-4.41,6.79c-6.81,5.97-14.98,7.3-23.94,6.04"/>
								</g>
								<g>
									<g>
										<path class="st3" d="M265.31,88.49c4.92-3.54,11.26-3.75,17.08-2.73c11.16,1.96,21.41,7.93,30.78,14.84
											c8.71,6.42,16.92,13.77,26.36,18.78c12.67,6.73,27.04,8.92,41.13,8.5c2.68-0.08,5.5-0.22,7.88,1.12
											c2.38,1.34,4.01,4.77,2.63,7.28c-0.84,1.53-2.48,2.26-4.01,2.89c-11.16,4.59-22.37,9.2-34.04,11.88
											c-11.67,2.68-23.91,3.37-35.45,0.11c-15.9-4.49-29.3-16.04-41.22-28.39c-3.52-3.65-7.02-7.47-9.33-12.14
											C264.81,105.98,259.96,95.16,265.31,88.49"/>
									</g>
									<g>
										<g class="st1">
											<path class="st2" d="M282.43,98.86c2.02,0,2.03-3.14,0-3.14C280.41,95.71,280.41,98.86,282.43,98.86L282.43,98.86z"/>
										</g>
										<g class="st1">
											<path class="st2" d="M307.8,132.59c2.02,0,2.03-3.14,0-3.14C305.77,129.45,305.77,132.59,307.8,132.59L307.8,132.59z"/>
										</g>
										<g class="st1">
											<path class="st2" d="M311.25,107.72c2.02,0,2.03-3.14,0-3.14C309.22,104.58,309.22,107.72,311.25,107.72L311.25,107.72z"
												/>
										</g>
										<g class="st1">
											<path class="st2" d="M288.84,121.76c2.02,0,2.03-3.14,0-3.14C286.81,118.62,286.81,121.76,288.84,121.76L288.84,121.76z"
												/>
										</g>
										<g class="st1">
											<path class="st2" d="M337.35,130.62c2.02,0,2.03-3.14,0-3.14C335.32,127.48,335.32,130.62,337.35,130.62L337.35,130.62z"
												/>
										</g>
										<g class="st1">
											<path class="st2" d="M331.97,148.85c2.02,0,2.03-3.14,0-3.14C329.95,145.7,329.94,148.85,331.97,148.85L331.97,148.85z"
												/>
										</g>
										<g class="st1">
											<path class="st2" d="M368.13,137.52c2.02,0,2.03-3.14,0-3.14C366.11,134.38,366.1,137.52,368.13,137.52L368.13,137.52z"
												/>
										</g>
									</g>
								</g>
							</g>
						</g>
						<g>
							<g class="st1">
								<path class="st2" d="M294.25,169.53c2.02,0,2.03-3.14,0-3.14C292.23,166.39,292.23,169.53,294.25,169.53L294.25,169.53z"/>
							</g>
							<g class="st1">
								<path class="st2" d="M274.55,145.15c2.02,0,2.03-3.14,0-3.14C272.53,142.01,272.53,145.15,274.55,145.15L274.55,145.15z"/>
							</g>
							<g class="st1">
								<path class="st2" d="M269.14,176.92c2.02,0,2.03-3.14,0-3.14C267.11,173.78,267.11,176.92,269.14,176.92L269.14,176.92z"/>
							</g>
							<g class="st1">
								<path class="st2" d="M250.18,194.4c2.02,0,2.03-3.14,0-3.14C248.15,191.26,248.15,194.4,250.18,194.4L250.18,194.4z"/>
							</g>
							<g class="st1">
								<path class="st2" d="M250.91,155.25c2.02,0,2.03-3.14,0-3.14C248.89,152.11,248.89,155.25,250.91,155.25L250.91,155.25z"/>
							</g>
							<g class="st1">
								<path class="st2" d="M261.75,124.71c2.02,0,2.03-3.14,0-3.14C259.73,121.57,259.72,124.71,261.75,124.71L261.75,124.71z"/>
							</g>
							<g class="st1">
								<path class="st2" d="M261.75,101.07c2.02,0,2.03-3.14,0-3.14C259.73,97.93,259.72,101.07,261.75,101.07L261.75,101.07z"/>
							</g>
							<g class="st1">
								<path class="st2" d="M300.16,151.06c2.02,0,2.03-3.14,0-3.14C298.14,147.92,298.14,151.06,300.16,151.06L300.16,151.06z"/>
							</g>
							<g class="st1">
								<path class="st2" d="M247.22,130.62c2.02,0,2.03-3.14,0-3.14C245.2,127.48,245.19,130.62,247.22,130.62L247.22,130.62z"/>
							</g>
						</g>
					</g>
				</g>
			</g>
		</g>
	</g>
</g>
</svg>
