<svg xmlns="http://www.w3.org/2000/svg" width="662.341" height="283.705" viewBox="0 0 662.341 283.705">
  <g id="undraw_Code_thinking_re_gka2_1_" data-name="undraw_Code_thinking_re_gka2 (1)" transform="translate(0 0)">
    <path id="Path_1" data-name="Path 1" d="M296.913,471.834a6.335,6.335,0,1,0-12.609.833L266.1,496.5a8.824,8.824,0,0,0,1.193,9.689l1.428,1.665,6.551-1.31L282.7,500l-.874-7.424L291,478.159l-.012-.01A6.33,6.33,0,0,0,296.913,471.834Z" transform="translate(-151.533 -313.562)" fill="#ffb9b9"/>
    <path id="Path_2" data-name="Path 2" d="M28.439,408.008l-2.971-11.034,41.146-16.709L71,396.55Z" transform="translate(-8.922 -133.213)" fill="#ffb8b8"/>
    <path id="Path_3" data-name="Path 3" d="M99.837,643.874,90.258,608.3l.45-.121a14.342,14.342,0,0,1,17.577,10.119h0l5.85,21.73Z" transform="translate(-90.258 -363.385)" fill="#2f2e41"/>
    <path id="Path_4" data-name="Path 4" d="M112.3,395.685l-9.241-6.72,21.525-38.844,13.639,9.919Z" transform="translate(-36.102 -122.653)" fill="#ffb8b8"/>
    <path id="Path_5" data-name="Path 5" d="M185.069,653.267l-29.8-21.671.274-.377a14.342,14.342,0,0,1,20.033-3.164h0l18.2,13.236Z" transform="translate(-113.033 -369.563)" fill="#2f2e41"/>
    <path id="Path_6" data-name="Path 6" d="M283.943,554.392,260.687,531.8a11.744,11.744,0,0,0-15.377-.859L201.4,579.722l3.931,6.114,41.926-28.387,28.388,37.122,27.077-13.538Z" transform="translate(-129.193 -335.641)" fill="#2f2e41"/>
    <path id="Path_7" data-name="Path 7" d="M290.861,571.866l-17.033-1.31-12.335-2.99a6.336,6.336,0,1,0-1.2,8.222l0,.009,7.424,3.057L299.6,589.772l3.931-3.057Z" transform="translate(-146.156 -348.311)" fill="#ffb9b9"/>
    <path id="Path_8" data-name="Path 8" d="M203.263,391.266l-9.608,6.114H182.3l-52.844-19.653L52.155,391.7l-2.184-16.6,70.75-31.007,62.015,20.526Z" transform="translate(-17.506 -120.544)" fill="#2f2e41"/>
    <circle id="Ellipse_1" data-name="Ellipse 1" cx="17.032" cy="17.032" r="17.032" transform="translate(148.199 130.531)" fill="#ffb9b9"/>
    <path id="Path_9" data-name="Path 9" d="M365.1,537.7a97.86,97.86,0,0,1-4.8,30.268l-1.276,3.924-6.114,27.951-6.551,1.747-4.8-6.114-9.608-6.988-6.987-11.355-5.992-9.984-1.869-3.118-6.551-32.755L285.66,517.3l-8.3-1.31,1.747-4.8,7.424-10.045,7.424-.874,2.184-1.747,1.747.873,9.63,3.71,31.222-13.191,4.568.747,15.722,13.1A97.777,97.777,0,0,1,365.1,537.7Z" transform="translate(-155.804 -322.129)" fill="#ccc"/>
    <path id="Path_10" data-name="Path 10" d="M288.686,314.646l-16.6,10.918L247.319,347.9l-1.869-3.118-5.241-26.2h1.31l13.539-24.893Z" transform="translate(-84.149 -102.882)" opacity="0.1"/>
    <path id="Path_11" data-name="Path 11" d="M247.758,289.649,234.22,314.542l-7.861,8.735-6.987,1.747L238.15,345.55l26.64-24.02,16.6-10.919Z" transform="translate(-76.849 -101.469)" fill="#ccc"/>
    <path id="Path_12" data-name="Path 12" d="M321,432.095l-1.845.71a2.576,2.576,0,0,1-.689-3.578l.03-.044-3.41-.16a25.752,25.752,0,0,1,38.444-3.1c.155-.535,1.848.506,2.539,1.561.232-.87,1.819,3.336,2.38,6.31.26-.99,1.259.608.384,2.142.555-.081.805,1.338.376,2.129.607-.285.5,1.409-.153,2.541.866-.077-.074,17.757-13.068,16.457-.9-4.156-.65-3.9-1.715-9.243-.5-.526-1.039-1.006-1.581-1.484l-2.932-2.588c-3.409-3.009-6.51-6.723-11.052-7.848-3.121-.773-5.094-.947-3.394-4.464-1.537.641-2.972,1.595-4.522,2.191C320.817,433.136,321.034,432.586,321,432.095Z" transform="translate(-169.02 -297.195)" fill="#2f2e41"/>
    <circle id="Ellipse_2" data-name="Ellipse 2" cx="3.057" cy="3.057" r="3.057" transform="translate(170.69 146.472)" fill="#ffb9b9"/>
    <rect id="Rectangle_5" data-name="Rectangle 5" width="14.04" height="14.04" transform="translate(30.25 91.335) rotate(-86.19)" fill="#e6e6e6"/>
    <path id="Path_13" data-name="Path 13" d="M123.733,362.131l17.011,1.133-1.133,17.01L122.6,379.142Zm16.222,1.823-15.531-1.034-1.034,15.531,15.531,1.034Z" transform="translate(-101.588 -277.366)" fill="#ccc"/>
    <rect id="Rectangle_6" data-name="Rectangle 6" width="14.04" height="14.04" transform="matrix(0.978, -0.21, 0.21, 0.978, 96.624, 38.736)" fill="#e6e6e6"/>
    <path id="Path_14" data-name="Path 14" d="M236.29,276.51l3.581,16.668L223.2,296.759l-3.581-16.668Zm2.7,16.1-3.27-15.218L220.5,280.66l3.27,15.218Z" transform="translate(-135.577 -247.371)" fill="#ccc"/>
    <rect id="Rectangle_7" data-name="Rectangle 7" width="14.04" height="14.04" transform="matrix(0.73, -0.684, 0.684, 0.73, 85.679, 111.304)" fill="#e6e6e6"/>
    <path id="Path_15" data-name="Path 15" d="M240.821,379.288l-12.443,11.654L216.724,378.5l12.442-11.654Zm-12.408,10.607,11.36-10.641-10.641-11.361-11.36,10.641Z" transform="translate(-134.561 -279.017)" fill="#ccc"/>
    <path id="Path_16" data-name="Path 16" d="M823.386,231.659h-415.4a11.433,11.433,0,0,0-11.433,11.433V474.543a11.433,11.433,0,0,0,11.433,11.433h415.4a11.434,11.434,0,0,0,11.434-11.433V243.093a11.433,11.433,0,0,0-11.433-11.433Z" transform="translate(-197.558 -231.659)" fill="#3f3d56"/>
    <rect id="Rectangle_8" data-name="Rectangle 8" width="407.605" height="229.931" transform="translate(214.324 20.206)" fill="#fff"/>
    <circle id="Ellipse_3" data-name="Ellipse 3" cx="4.181" cy="4.181" r="4.181" transform="translate(413.597 5.574)" fill="#fff"/>
    <path id="Path_17" data-name="Path 17" d="M620.927,261.033H329.89V31.1Z" transform="translate(-115.566 -10.896)" fill="#f2f2f2"/>
    <circle id="Ellipse_4" data-name="Ellipse 4" cx="39.18" cy="39.18" r="39.18" transform="translate(238.922 154.571)" fill="#38f0d4"/>
    <path id="Path_18" data-name="Path 18" d="M505.462,522.651A48.736,48.736,0,1,1,554.2,473.915,48.737,48.737,0,0,1,505.462,522.651Zm0-96.836a48.1,48.1,0,1,0,48.1,48.1,48.1,48.1,0,0,0-48.1-48.1Z" transform="translate(-218.638 -299.453)" fill="#3f3d56"/>
    <rect id="Rectangle_9" data-name="Rectangle 9" width="38.075" height="7.956" transform="translate(489.495 139.662)" fill="#3f3d56"/>
    <rect id="Rectangle_10" data-name="Rectangle 10" width="110.119" height="3.41" transform="translate(453.473 96.56)" fill="#3f3d56"/>
    <rect id="Rectangle_11" data-name="Rectangle 11" width="110.119" height="3.41" transform="translate(453.473 109.956)" fill="#3f3d56"/>
    <rect id="Rectangle_12" data-name="Rectangle 12" width="110.119" height="3.41" transform="translate(453.473 123.353)" fill="#3f3d56"/>
    <rect id="Rectangle_13" data-name="Rectangle 13" width="15.912" height="15.912" transform="translate(577.179 33.966)" fill="#38f0d4"/>
    <path id="Path_19" data-name="Path 19" d="M1004.1,309.386H984.78V290.064H1004.1Zm-18.481-.84h17.641V290.9h-17.64Z" transform="translate(-403.624 -252.12)" fill="#ccc"/>
    <path id="Path_20" data-name="Path 20" d="M836.869,608.387H797.09v-2.866a.568.568,0,0,0-.568-.568H782.883a.568.568,0,0,0-.568.568v2.866H773.79v-2.866a.568.568,0,0,0-.568-.568H759.582a.568.568,0,0,0-.568.568h0v2.866H750.49v-2.866a.568.568,0,0,0-.568-.568H736.283a.568.568,0,0,0-.568.568h0v2.866H727.19v-2.866a.568.568,0,0,0-.568-.568H712.984a.568.568,0,0,0-.568.568v2.866h-8.525v-2.866a.568.568,0,0,0-.568-.568H689.684a.568.568,0,0,0-.568.568h0v2.866h-8.524v-2.866a.568.568,0,0,0-.568-.568H666.385a.568.568,0,0,0-.568.568h0v2.866h-8.524v-2.866a.568.568,0,0,0-.568-.568H549.887a.568.568,0,0,0-.568.568h0v2.866h-8.524v-2.866a.568.568,0,0,0-.568-.568H526.588a.568.568,0,0,0-.568.568h0v2.866H517.5v-2.866a.568.568,0,0,0-.568-.568H503.288a.568.568,0,0,0-.568.568h0v2.866H494.2v-2.866a.568.568,0,0,0-.568-.568H479.989a.568.568,0,0,0-.568.568h0v2.866H470.9v-2.866a.568.568,0,0,0-.568-.568H456.689a.568.568,0,0,0-.568.568h0v2.866H447.6v-2.866a.568.568,0,0,0-.568-.568H433.389a.568.568,0,0,0-.568.568v2.866H424.3v-2.866a.568.568,0,0,0-.568-.568H410.09a.568.568,0,0,0-.568.568h0v2.866H383.381a13.639,13.639,0,0,0-13.639,13.639v6.167a13.639,13.639,0,0,0,13.638,13.638H836.869a13.639,13.639,0,0,0,13.639-13.639v-6.167a13.639,13.639,0,0,0-13.638-13.639Z" transform="translate(-188.166 -362.43)" fill="#3f3d56"/>
  </g>
</svg>
