<svg xmlns="http://www.w3.org/2000/svg" viewBox="0 0 35 35"><defs><style>.cls-1{fill:#ffcc4d;}.cls-2{fill:#664500;}.cls-3{fill:#fff;}</style></defs><g id="Layer_2" data-name="Layer 2"><g id="Layer_1-2" data-name="Layer 1"><g id="Page-1"><g id="_1f600" data-name="1f600"><g id="g10"><g id="g12"><g id="g14-Clipped"><g id="g14"><g id="g20"><path id="path22" class="cls-1" d="M35,17.5A17.5,17.5,0,1,1,17.5,0,17.49,17.49,0,0,1,35,17.5"/></g><g id="g24"><path id="path26" class="cls-2" d="M17.5,20.59a43.83,43.83,0,0,1-9.26-1c-.7-.14-2.06,0-2.06,2.06,0,4.12,4.73,9.26,11.32,9.26s11.32-5.14,11.32-9.26c0-2.06-1.36-2.2-2.06-2.06a43.83,43.83,0,0,1-9.26,1"/></g><g id="g28"><path id="path30" class="cls-2" d="M9.45,12.44a1.88,1.88,0,0,1,3.76,0v1.88a1.88,1.88,0,1,1-3.76,0Z"/></g><g id="g32"><path id="path34" class="cls-2" d="M21.47,12.44a1.88,1.88,0,1,1,3.76,0v1.88a1.88,1.88,0,1,1-3.76,0Z"/></g><g id="g36"><path id="path38" class="cls-3" d="M8.24,21.62a32.21,32.21,0,0,0,9.26,1,32.21,32.21,0,0,0,9.26-1s-2.05,4.12-9.26,4.12-9.26-4.12-9.26-4.12"/></g></g></g></g></g></g></g></g></g></svg>