<svg xmlns="http://www.w3.org/2000/svg" viewBox="0 0 34.59 34.59"><defs><style>.cls-1{fill:#ffcc4d;}.cls-2{fill:#664500;}.cls-3{fill:#5dadec;}.cls-4{fill:#e75a70;}</style></defs><g id="Layer_2" data-name="Layer 2"><g id="Layer_1-2" data-name="Layer 1"><path class="cls-1" d="M34.59,17.3A17.3,17.3,0,1,1,17.3,0,17.29,17.29,0,0,1,34.59,17.3"/><path class="cls-2" d="M21.14,25.94c0,2.66-1.72,2.89-3.84,2.89s-3.85-.23-3.85-2.89,1.72-5.76,3.85-5.76S21.14,23.29,21.14,25.94Zm7.69-11.53a.92.92,0,0,1-.36-.07A16,16,0,0,1,21.3,9.18a1,1,0,0,1,1.6-1.07,14.27,14.27,0,0,0,6.28,4.45,1,1,0,0,1-.35,1.85Zm-23.06,0a1,1,0,0,1-.36-1.85,14.19,14.19,0,0,0,6.28-4.45A1,1,0,0,1,13,7.85a1,1,0,0,1,.26,1.33c-.08.13-2.14,3.16-7.17,5.17A1.07,1.07,0,0,1,5.77,14.41Z"/><path class="cls-3" d="M22.68,15.11h4.18V33.22l-4.18,0ZM7.36,33.22l4.18,0V15.11H7.36Z"/><path class="cls-2" d="M14.41,17.3a1.12,1.12,0,0,1-.43-.1,8.26,8.26,0,0,0-6.82,0,1,1,0,0,1-1.29-.43,1,1,0,0,1,.43-1.29,10.14,10.14,0,0,1,8.54,0,1,1,0,0,1,.43,1.29A1,1,0,0,1,14.41,17.3Zm13.45,0a1,1,0,0,1-.42-.1,8.28,8.28,0,0,0-6.83,0,1,1,0,0,1-1.29-.43,1,1,0,0,1,.43-1.29,10.2,10.2,0,0,1,8.55,0,1,1,0,0,1,.43,1.29A1,1,0,0,1,27.86,17.3Z"/><ellipse class="cls-3" cx="17.3" cy="32.67" rx="17.3" ry="1.92"/><ellipse class="cls-4" cx="17.3" cy="25.94" rx="2.88" ry="1.92"/></g></g></svg>