<svg xmlns="http://www.w3.org/2000/svg" viewBox="0 0 35 35"><defs><style>.cls-1{fill:#ffcd4c;}.cls-2{fill:#664300;}</style></defs><g id="Layer_2" data-name="Layer 2"><g id="Layer_1-2" data-name="Layer 1"><circle class="cls-1" cx="17.5" cy="17.5" r="17.5"/><path class="cls-2" d="M11.37,11.7a2,2,0,0,0-1,.59A3.34,3.34,0,0,0,9.53,14a5.26,5.26,0,0,0,0,1.68,2.74,2.74,0,0,0,1.74,2.24,1.94,1.94,0,0,0,.83,0,2.55,2.55,0,0,0,1.61-1.74,4.47,4.47,0,0,0,.13-2.21,2.74,2.74,0,0,0-1.74-2.2A2.26,2.26,0,0,0,11.37,11.7Z"/><path class="cls-2" d="M22.92,11.72a2.57,2.57,0,0,0-.71.38,3.33,3.33,0,0,0-1,1.82,3.89,3.89,0,0,0,.86,3.44,2,2,0,0,0,.72.47,1.77,1.77,0,0,0,1,0,2.72,2.72,0,0,0,1.7-2.22,3,3,0,0,0,.07-.85,3.48,3.48,0,0,0-.22-1.38,2.6,2.6,0,0,0-1.45-1.65A2.13,2.13,0,0,0,22.92,11.72Z"/><path class="cls-2" d="M11,21.57a.9.9,0,0,0-.11,1.65l.15.08H24l.14-.08a.85.85,0,0,0,.49-.65.89.89,0,0,0-.5-1L24,21.54H17.56C11.78,21.53,11.07,21.53,11,21.57Z"/></g></g></svg>