<svg xmlns="http://www.w3.org/2000/svg" viewBox="0 0 35.09 35.09"><defs><style>.cls-1{fill:#ffcc4d;}.cls-2{fill:#664500;}</style></defs><g id="Layer_2" data-name="Layer 2"><g id="Layer_1-2" data-name="Layer 1"><g id="Page-1"><g id="_1f615" data-name="1f615"><g id="g14"><g id="g20"><path id="path22" class="cls-1" d="M35.09,17.54A17.55,17.55,0,1,1,17.54,0,17.55,17.55,0,0,1,35.09,17.54"/></g><g id="g24"><path id="path26" class="cls-2" d="M13.42,16c0,2-1.16,3.61-2.58,3.61S8.26,18,8.26,16s1.15-3.62,2.58-3.62S13.42,14,13.42,16"/></g><g id="g28"><path id="path30" class="cls-2" d="M26.83,16c0,2-1.15,3.61-2.58,3.61S21.67,18,21.67,16s1.16-3.62,2.58-3.62S26.83,14,26.83,16"/></g><g id="g32"><path id="path34" class="cls-2" d="M11.35,27.86c2.07-5.16,13.42-5.16,13.42-3.09,0,1-8.26-1-13.42,3.09"/></g></g></g></g></g></g></svg>